<?xml version="1.0" encoding="UTF-8"?>
<svg xmlns="http://www.w3.org/2000/svg" xmlns:xlink="http://www.w3.org/1999/xlink" width="3873" height="3873" viewBox="0 0 3873 3873">
<defs>
<clipPath id="clip-0">
<path clip-rule="evenodd" d="M 1936.5 0 C 3006 0 3873 867 3873 1936.5 C 3873 3006 3006 3873 1936.5 3873 C 867 3873 0 3006 0 1936.5 C 0 867 867 0 1936.5 0 "/>
</clipPath>
<linearGradient id="linear-pattern-0" gradientUnits="userSpaceOnUse" x1="-0.500008" y1="0" x2="1.500007" y2="0" gradientTransform="matrix(2072.1, -1778.48, 1778.48, 2072.1, 900.452, 2825.74)">
<stop offset="0" stop-color="rgb(0%, 19.999695%, 59.999084%)" stop-opacity="1"/>
<stop offset="0.25" stop-color="rgb(0%, 19.999695%, 59.999084%)" stop-opacity="1"/>
<stop offset="0.253906" stop-color="rgb(0.907898%, 20.425415%, 60.211182%)" stop-opacity="1"/>
<stop offset="0.257812" stop-color="rgb(1.817322%, 20.851135%, 60.424805%)" stop-opacity="1"/>
<stop offset="0.261719" stop-color="rgb(2.72522%, 21.276855%, 60.638428%)" stop-opacity="1"/>
<stop offset="0.265625" stop-color="rgb(3.634644%, 21.704102%, 60.852051%)" stop-opacity="1"/>
<stop offset="0.269531" stop-color="rgb(4.544067%, 22.129822%, 61.064148%)" stop-opacity="1"/>
<stop offset="0.273437" stop-color="rgb(5.453491%, 22.555542%, 61.277771%)" stop-opacity="1"/>
<stop offset="0.277344" stop-color="rgb(6.361389%, 22.981262%, 61.489868%)" stop-opacity="1"/>
<stop offset="0.28125" stop-color="rgb(7.270813%, 23.408508%, 61.703491%)" stop-opacity="1"/>
<stop offset="0.285156" stop-color="rgb(8.180237%, 23.834229%, 61.915588%)" stop-opacity="1"/>
<stop offset="0.289062" stop-color="rgb(9.089661%, 24.259949%, 62.129211%)" stop-opacity="1"/>
<stop offset="0.292969" stop-color="rgb(9.997559%, 24.685669%, 62.342834%)" stop-opacity="1"/>
<stop offset="0.296875" stop-color="rgb(10.906982%, 25.112915%, 62.556458%)" stop-opacity="1"/>
<stop offset="0.300781" stop-color="rgb(11.816406%, 25.538635%, 62.768555%)" stop-opacity="1"/>
<stop offset="0.304688" stop-color="rgb(12.72583%, 25.964355%, 62.982178%)" stop-opacity="1"/>
<stop offset="0.308594" stop-color="rgb(13.633728%, 26.390076%, 63.194275%)" stop-opacity="1"/>
<stop offset="0.3125" stop-color="rgb(14.543152%, 26.817322%, 63.407898%)" stop-opacity="1"/>
<stop offset="0.316406" stop-color="rgb(15.452576%, 27.243042%, 63.619995%)" stop-opacity="1"/>
<stop offset="0.320312" stop-color="rgb(16.362%, 27.668762%, 63.833618%)" stop-opacity="1"/>
<stop offset="0.324219" stop-color="rgb(17.269897%, 28.094482%, 64.047241%)" stop-opacity="1"/>
<stop offset="0.328125" stop-color="rgb(18.179321%, 28.521729%, 64.260864%)" stop-opacity="1"/>
<stop offset="0.332031" stop-color="rgb(19.088745%, 28.947449%, 64.472961%)" stop-opacity="1"/>
<stop offset="0.335938" stop-color="rgb(19.998169%, 29.373169%, 64.686584%)" stop-opacity="1"/>
<stop offset="0.339844" stop-color="rgb(20.906067%, 29.798889%, 64.898682%)" stop-opacity="1"/>
<stop offset="0.34375" stop-color="rgb(21.815491%, 30.226135%, 65.112305%)" stop-opacity="1"/>
<stop offset="0.347656" stop-color="rgb(22.724915%, 30.651855%, 65.324402%)" stop-opacity="1"/>
<stop offset="0.351562" stop-color="rgb(23.634338%, 31.077576%, 65.538025%)" stop-opacity="1"/>
<stop offset="0.355469" stop-color="rgb(24.542236%, 31.503296%, 65.751648%)" stop-opacity="1"/>
<stop offset="0.359375" stop-color="rgb(25.45166%, 31.930542%, 65.965271%)" stop-opacity="1"/>
<stop offset="0.363281" stop-color="rgb(26.361084%, 32.356262%, 66.177368%)" stop-opacity="1"/>
<stop offset="0.367187" stop-color="rgb(27.270508%, 32.781982%, 66.390991%)" stop-opacity="1"/>
<stop offset="0.371094" stop-color="rgb(28.178406%, 33.207703%, 66.603088%)" stop-opacity="1"/>
<stop offset="0.375" stop-color="rgb(29.08783%, 33.634949%, 66.816711%)" stop-opacity="1"/>
<stop offset="0.378906" stop-color="rgb(29.997253%, 34.060669%, 67.028809%)" stop-opacity="1"/>
<stop offset="0.382812" stop-color="rgb(30.906677%, 34.486389%, 67.242432%)" stop-opacity="1"/>
<stop offset="0.386719" stop-color="rgb(31.814575%, 34.912109%, 67.456055%)" stop-opacity="1"/>
<stop offset="0.390625" stop-color="rgb(32.723999%, 35.339355%, 67.669678%)" stop-opacity="1"/>
<stop offset="0.394531" stop-color="rgb(33.633423%, 35.765076%, 67.881775%)" stop-opacity="1"/>
<stop offset="0.398438" stop-color="rgb(34.542847%, 36.190796%, 68.095398%)" stop-opacity="1"/>
<stop offset="0.402344" stop-color="rgb(35.450745%, 36.616516%, 68.307495%)" stop-opacity="1"/>
<stop offset="0.40625" stop-color="rgb(36.360168%, 37.043762%, 68.521118%)" stop-opacity="1"/>
<stop offset="0.410156" stop-color="rgb(37.269592%, 37.469482%, 68.733215%)" stop-opacity="1"/>
<stop offset="0.414062" stop-color="rgb(38.179016%, 37.895203%, 68.946838%)" stop-opacity="1"/>
<stop offset="0.417969" stop-color="rgb(39.086914%, 38.320923%, 69.160461%)" stop-opacity="1"/>
<stop offset="0.421875" stop-color="rgb(39.996338%, 38.748169%, 69.374084%)" stop-opacity="1"/>
<stop offset="0.425781" stop-color="rgb(40.905762%, 39.173889%, 69.586182%)" stop-opacity="1"/>
<stop offset="0.429688" stop-color="rgb(41.815186%, 39.599609%, 69.799805%)" stop-opacity="1"/>
<stop offset="0.433594" stop-color="rgb(42.723083%, 40.02533%, 70.011902%)" stop-opacity="1"/>
<stop offset="0.4375" stop-color="rgb(43.632507%, 40.452576%, 70.225525%)" stop-opacity="1"/>
<stop offset="0.441406" stop-color="rgb(44.541931%, 40.878296%, 70.437622%)" stop-opacity="1"/>
<stop offset="0.445312" stop-color="rgb(45.451355%, 41.304016%, 70.651245%)" stop-opacity="1"/>
<stop offset="0.449219" stop-color="rgb(46.359253%, 41.729736%, 70.864868%)" stop-opacity="1"/>
<stop offset="0.453125" stop-color="rgb(47.268677%, 42.156982%, 71.078491%)" stop-opacity="1"/>
<stop offset="0.457031" stop-color="rgb(48.178101%, 42.582703%, 71.290588%)" stop-opacity="1"/>
<stop offset="0.460938" stop-color="rgb(49.087524%, 43.008423%, 71.504211%)" stop-opacity="1"/>
<stop offset="0.464844" stop-color="rgb(49.801636%, 43.1427%, 71.463013%)" stop-opacity="1"/>
<stop offset="0.46875" stop-color="rgb(50.515747%, 43.276978%, 71.42334%)" stop-opacity="1"/>
<stop offset="0.472656" stop-color="rgb(50.924683%, 42.953491%, 70.986938%)" stop-opacity="1"/>
<stop offset="0.476562" stop-color="rgb(51.333618%, 42.630005%, 70.550537%)" stop-opacity="1"/>
<stop offset="0.480469" stop-color="rgb(51.742554%, 42.306519%, 70.114136%)" stop-opacity="1"/>
<stop offset="0.484375" stop-color="rgb(52.153015%, 41.983032%, 69.677734%)" stop-opacity="1"/>
<stop offset="0.488281" stop-color="rgb(52.561951%, 41.659546%, 69.241333%)" stop-opacity="1"/>
<stop offset="0.492188" stop-color="rgb(52.972412%, 41.33606%, 68.804932%)" stop-opacity="1"/>
<stop offset="0.496094" stop-color="rgb(53.381348%, 41.012573%, 68.36853%)" stop-opacity="1"/>
<stop offset="0.5" stop-color="rgb(53.791809%, 40.690613%, 67.932129%)" stop-opacity="1"/>
<stop offset="0.503906" stop-color="rgb(54.200745%, 40.367126%, 67.495728%)" stop-opacity="1"/>
<stop offset="0.507812" stop-color="rgb(54.60968%, 40.04364%, 67.059326%)" stop-opacity="1"/>
<stop offset="0.511719" stop-color="rgb(55.018616%, 39.720154%, 66.622925%)" stop-opacity="1"/>
<stop offset="0.515625" stop-color="rgb(55.429077%, 39.396667%, 66.186523%)" stop-opacity="1"/>
<stop offset="0.519531" stop-color="rgb(55.838013%, 39.073181%, 65.750122%)" stop-opacity="1"/>
<stop offset="0.523438" stop-color="rgb(56.248474%, 38.749695%, 65.313721%)" stop-opacity="1"/>
<stop offset="0.527344" stop-color="rgb(56.65741%, 38.426208%, 64.875793%)" stop-opacity="1"/>
<stop offset="0.53125" stop-color="rgb(57.067871%, 38.104248%, 64.439392%)" stop-opacity="1"/>
<stop offset="0.535156" stop-color="rgb(57.476807%, 37.780762%, 64.002991%)" stop-opacity="1"/>
<stop offset="0.539062" stop-color="rgb(57.885742%, 37.457275%, 63.566589%)" stop-opacity="1"/>
<stop offset="0.542969" stop-color="rgb(58.294678%, 37.133789%, 63.130188%)" stop-opacity="1"/>
<stop offset="0.546875" stop-color="rgb(58.705139%, 36.810303%, 62.693787%)" stop-opacity="1"/>
<stop offset="0.550781" stop-color="rgb(59.114075%, 36.486816%, 62.257385%)" stop-opacity="1"/>
<stop offset="0.554688" stop-color="rgb(59.524536%, 36.16333%, 61.820984%)" stop-opacity="1"/>
<stop offset="0.558594" stop-color="rgb(59.933472%, 35.839844%, 61.384583%)" stop-opacity="1"/>
<stop offset="0.5625" stop-color="rgb(60.342407%, 35.517883%, 60.948181%)" stop-opacity="1"/>
<stop offset="0.566406" stop-color="rgb(60.751343%, 35.194397%, 60.51178%)" stop-opacity="1"/>
<stop offset="0.570312" stop-color="rgb(61.161804%, 34.870911%, 60.075378%)" stop-opacity="1"/>
<stop offset="0.574219" stop-color="rgb(61.57074%, 34.547424%, 59.638977%)" stop-opacity="1"/>
<stop offset="0.578125" stop-color="rgb(61.981201%, 34.223938%, 59.202576%)" stop-opacity="1"/>
<stop offset="0.582031" stop-color="rgb(62.390137%, 33.900452%, 58.766174%)" stop-opacity="1"/>
<stop offset="0.585938" stop-color="rgb(62.800598%, 33.576965%, 58.329773%)" stop-opacity="1"/>
<stop offset="0.589844" stop-color="rgb(63.209534%, 33.253479%, 57.893372%)" stop-opacity="1"/>
<stop offset="0.59375" stop-color="rgb(63.618469%, 32.931519%, 57.45697%)" stop-opacity="1"/>
<stop offset="0.597656" stop-color="rgb(64.027405%, 32.608032%, 57.020569%)" stop-opacity="1"/>
<stop offset="0.601562" stop-color="rgb(64.437866%, 32.284546%, 56.584167%)" stop-opacity="1"/>
<stop offset="0.605469" stop-color="rgb(64.846802%, 31.96106%, 56.147766%)" stop-opacity="1"/>
<stop offset="0.609375" stop-color="rgb(65.257263%, 31.637573%, 55.711365%)" stop-opacity="1"/>
<stop offset="0.613281" stop-color="rgb(65.666199%, 31.314087%, 55.274963%)" stop-opacity="1"/>
<stop offset="0.617188" stop-color="rgb(66.07666%, 30.990601%, 54.838562%)" stop-opacity="1"/>
<stop offset="0.621094" stop-color="rgb(66.485596%, 30.667114%, 54.402161%)" stop-opacity="1"/>
<stop offset="0.625" stop-color="rgb(66.894531%, 30.345154%, 53.965759%)" stop-opacity="1"/>
<stop offset="0.628906" stop-color="rgb(67.303467%, 30.021667%, 53.529358%)" stop-opacity="1"/>
<stop offset="0.632812" stop-color="rgb(67.713928%, 29.698181%, 53.092957%)" stop-opacity="1"/>
<stop offset="0.636719" stop-color="rgb(68.122864%, 29.374695%, 52.656555%)" stop-opacity="1"/>
<stop offset="0.640625" stop-color="rgb(68.533325%, 29.051208%, 52.220154%)" stop-opacity="1"/>
<stop offset="0.644531" stop-color="rgb(68.942261%, 28.727722%, 51.783752%)" stop-opacity="1"/>
<stop offset="0.648437" stop-color="rgb(69.352722%, 28.404236%, 51.347351%)" stop-opacity="1"/>
<stop offset="0.652344" stop-color="rgb(69.761658%, 28.08075%, 50.909424%)" stop-opacity="1"/>
<stop offset="0.65625" stop-color="rgb(70.170593%, 27.758789%, 50.473022%)" stop-opacity="1"/>
<stop offset="0.660156" stop-color="rgb(70.579529%, 27.435303%, 50.036621%)" stop-opacity="1"/>
<stop offset="0.664062" stop-color="rgb(70.98999%, 27.111816%, 49.60022%)" stop-opacity="1"/>
<stop offset="0.667969" stop-color="rgb(71.398926%, 26.78833%, 49.163818%)" stop-opacity="1"/>
<stop offset="0.671875" stop-color="rgb(71.809387%, 26.464844%, 48.727417%)" stop-opacity="1"/>
<stop offset="0.675781" stop-color="rgb(72.218323%, 26.141357%, 48.291016%)" stop-opacity="1"/>
<stop offset="0.679688" stop-color="rgb(72.628784%, 25.817871%, 47.854614%)" stop-opacity="1"/>
<stop offset="0.683594" stop-color="rgb(73.03772%, 25.494385%, 47.418213%)" stop-opacity="1"/>
<stop offset="0.6875" stop-color="rgb(73.446655%, 25.172424%, 46.981812%)" stop-opacity="1"/>
<stop offset="0.691406" stop-color="rgb(73.855591%, 24.848938%, 46.54541%)" stop-opacity="1"/>
<stop offset="0.695312" stop-color="rgb(74.266052%, 24.525452%, 46.109009%)" stop-opacity="1"/>
<stop offset="0.699219" stop-color="rgb(74.674988%, 24.201965%, 45.672607%)" stop-opacity="1"/>
<stop offset="0.703125" stop-color="rgb(75.085449%, 23.878479%, 45.236206%)" stop-opacity="1"/>
<stop offset="0.707031" stop-color="rgb(75.494385%, 23.554993%, 44.799805%)" stop-opacity="1"/>
<stop offset="0.710938" stop-color="rgb(75.904846%, 23.231506%, 44.363403%)" stop-opacity="1"/>
<stop offset="0.714844" stop-color="rgb(76.313782%, 22.90802%, 43.927002%)" stop-opacity="1"/>
<stop offset="0.71875" stop-color="rgb(76.722717%, 22.58606%, 43.490601%)" stop-opacity="1"/>
<stop offset="0.722656" stop-color="rgb(77.131653%, 22.262573%, 43.054199%)" stop-opacity="1"/>
<stop offset="0.726562" stop-color="rgb(77.542114%, 21.939087%, 42.617798%)" stop-opacity="1"/>
<stop offset="0.730469" stop-color="rgb(77.95105%, 21.615601%, 42.181396%)" stop-opacity="1"/>
<stop offset="0.734375" stop-color="rgb(78.361511%, 21.292114%, 41.744995%)" stop-opacity="1"/>
<stop offset="0.738281" stop-color="rgb(78.770447%, 20.968628%, 41.308594%)" stop-opacity="1"/>
<stop offset="0.742187" stop-color="rgb(79.180908%, 20.645142%, 40.872192%)" stop-opacity="1"/>
<stop offset="0.746094" stop-color="rgb(79.589844%, 20.321655%, 40.435791%)" stop-opacity="1"/>
<stop offset="0.75" stop-color="rgb(79.998779%, 19.999695%, 39.99939%)" stop-opacity="1"/>
<stop offset="1" stop-color="rgb(79.998779%, 19.999695%, 39.99939%)" stop-opacity="1"/>
</linearGradient>
</defs>
<g clip-path="url(#clip-0)">
<path fill-rule="nonzero" fill="url(#linear-pattern-0)" d="M -1914.109375 1642.878906 L 1642.878906 5787.109375 L 5787.109375 2230.121094 L 2230.121094 -1914.109375 Z M -1914.109375 1642.878906 "/>
</g>
<path fill-rule="evenodd" fill="rgb(100%, 100%, 99.609375%)" fill-opacity="1" d="M 2680.601562 1984.699219 L 1192.398438 1984.699219 C 1169.898438 1984.699219 1151.601562 1966.398438 1151.601562 1943.898438 L 1151.601562 1867 C 1151.601562 1844.5 1169.898438 1826.199219 1192.398438 1826.199219 L 2680.601562 1826.199219 C 2703.101562 1826.199219 2721.398438 1844.5 2721.398438 1867 L 2721.398438 1943.898438 C 2721.398438 1966.398438 2703.101562 1984.699219 2680.601562 1984.699219 "/>
<path fill-rule="evenodd" fill="rgb(100%, 100%, 99.609375%)" fill-opacity="1" d="M 1547.898438 2106.699219 L 1248.300781 2106.699219 C 1236.800781 2106.699219 1227.5 2097.398438 1227.5 2085.898438 L 1227.5 1962.800781 L 1568.699219 1962.800781 L 1568.699219 2085.898438 C 1568.601562 2097.398438 1559.300781 2106.699219 1547.898438 2106.699219 "/>
<path fill-rule="evenodd" fill="rgb(100%, 100%, 99.609375%)" fill-opacity="1" d="M 1490 2571.800781 L 1306.101562 2571.800781 C 1294.601562 2571.800781 1285.300781 2562.5 1285.300781 2551 L 1285.300781 2086 C 1285.300781 2074.5 1294.601562 2065.199219 1306.101562 2065.199219 C 1325.199219 2065.199219 1470.699219 2065.199219 1490 2065.199219 C 1501.5 2065.199219 1510.800781 2074.5 1510.800781 2086 L 1510.800781 2551 C 1510.800781 2562.5 1501.5 2571.800781 1490 2571.800781 "/>
<path fill-rule="evenodd" fill="rgb(100%, 100%, 99.609375%)" fill-opacity="1" d="M 1547.898438 2680.800781 C 1546.699219 2680.800781 1249.5 2680.800781 1248.300781 2680.800781 C 1236.800781 2680.800781 1227.5 2671.5 1227.5 2660 L 1227.5 2551 C 1227.5 2539.5 1236.800781 2530.199219 1248.300781 2530.199219 L 1547.898438 2530.199219 C 1559.398438 2530.199219 1568.699219 2539.5 1568.699219 2551 L 1568.699219 2660 C 1568.601562 2671.398438 1559.300781 2680.800781 1547.898438 2680.800781 "/>
<path fill-rule="evenodd" fill="rgb(100%, 100%, 99.609375%)" fill-opacity="1" d="M 2086.300781 2106.699219 L 1786.699219 2106.699219 C 1775.199219 2106.699219 1765.898438 2097.398438 1765.898438 2085.898438 L 1765.898438 1940 L 2107.101562 1940 L 2107.101562 2085.898438 C 2107.101562 2097.398438 2097.800781 2106.699219 2086.300781 2106.699219 "/>
<path fill-rule="evenodd" fill="rgb(100%, 100%, 99.609375%)" fill-opacity="1" d="M 2028.5 2571.800781 L 1844.601562 2571.800781 C 1833.101562 2571.800781 1823.800781 2562.5 1823.800781 2551 L 1823.800781 2086 C 1823.800781 2074.5 1833.101562 2065.199219 1844.601562 2065.199219 C 1863.699219 2065.199219 2009.199219 2065.199219 2028.5 2065.199219 C 2040 2065.199219 2049.300781 2074.5 2049.300781 2086 L 2049.300781 2551 C 2049.199219 2562.5 2039.898438 2571.800781 2028.5 2571.800781 "/>
<path fill-rule="evenodd" fill="rgb(100%, 100%, 99.609375%)" fill-opacity="1" d="M 2086.300781 2680.800781 C 2085.101562 2680.800781 1787.898438 2680.800781 1786.699219 2680.800781 C 1775.199219 2680.800781 1765.898438 2671.5 1765.898438 2660 L 1765.898438 2551 C 1765.898438 2539.5 1775.199219 2530.199219 1786.699219 2530.199219 L 2086.300781 2530.199219 C 2097.800781 2530.199219 2107.101562 2539.5 2107.101562 2551 L 2107.101562 2660 C 2107.101562 2671.398438 2097.800781 2680.800781 2086.300781 2680.800781 "/>
<path fill-rule="evenodd" fill="rgb(100%, 100%, 99.609375%)" fill-opacity="1" d="M 2624.699219 2106.699219 L 2325.101562 2106.699219 C 2313.601562 2106.699219 2304.300781 2097.398438 2304.300781 2085.898438 L 2304.300781 1961.199219 L 2645.5 1961.199219 L 2645.5 2085.898438 C 2645.5 2097.398438 2636.199219 2106.699219 2624.699219 2106.699219 "/>
<path fill-rule="evenodd" fill="rgb(100%, 100%, 99.609375%)" fill-opacity="1" d="M 2566.898438 2571.800781 L 2383 2571.800781 C 2371.5 2571.800781 2362.199219 2562.5 2362.199219 2551 L 2362.199219 2086 C 2362.199219 2074.5 2371.5 2065.199219 2383 2065.199219 C 2454.699219 2065.199219 2562 2065.199219 2566.898438 2065.199219 C 2578.398438 2065.199219 2587.699219 2074.5 2587.699219 2086 L 2587.699219 2551 C 2587.699219 2562.5 2578.398438 2571.800781 2566.898438 2571.800781 "/>
<path fill-rule="evenodd" fill="rgb(100%, 100%, 99.609375%)" fill-opacity="1" d="M 2624.699219 2680.800781 C 2578.398438 2680.800781 2371.398438 2680.800781 2325.101562 2680.800781 C 2313.601562 2680.800781 2304.300781 2671.5 2304.300781 2660 L 2304.300781 2551 C 2304.300781 2539.5 2313.601562 2530.199219 2325.101562 2530.199219 L 2624.699219 2530.199219 C 2636.199219 2530.199219 2645.5 2539.5 2645.5 2551 L 2645.5 2660 C 2645.5 2671.398438 2636.199219 2680.800781 2624.699219 2680.800781 "/>
<path fill-rule="evenodd" fill="rgb(100%, 100%, 99.609375%)" fill-opacity="1" d="M 1936.5 1325.699219 C 1935.898438 1325.699219 1935.398438 1325.699219 1934.800781 1325.601562 C 1904.699219 1326.5 1880.398438 1351.300781 1880.398438 1381.601562 C 1880.398438 1412.5 1905.601562 1437.699219 1936.5 1437.699219 C 1990.300781 1437.699219 2034.101562 1481.5 2034.101562 1535.300781 C 2034.101562 1582 2001.101562 1621.199219 1957.199219 1630.699219 L 1957.199219 1638.398438 C 1957.199219 1649.898438 1947.898438 1659.199219 1936.398438 1659.199219 C 1924.898438 1659.199219 1915.601562 1649.898438 1915.601562 1638.398438 L 1915.601562 1630.699219 C 1871.699219 1621.101562 1838.699219 1582 1838.699219 1535.300781 C 1838.699219 1523.800781 1848 1514.5 1859.5 1514.5 C 1871 1514.5 1880.300781 1523.800781 1880.300781 1535.300781 C 1880.300781 1565.5 1904.300781 1590.199219 1934.300781 1591.300781 C 1935 1591.199219 1935.699219 1591.199219 1936.398438 1591.199219 C 1937.101562 1591.199219 1937.800781 1591.199219 1938.5 1591.300781 C 1968.5 1590.199219 1992.5 1565.5 1992.5 1535.300781 C 1992.5 1504.398438 1967.300781 1479.199219 1936.398438 1479.199219 C 1882.601562 1479.199219 1838.800781 1435.398438 1838.800781 1381.601562 C 1838.800781 1334.898438 1871.800781 1295.699219 1915.699219 1286.199219 L 1915.699219 1278.5 C 1915.699219 1267 1925 1257.699219 1936.5 1257.699219 C 1948 1257.699219 1957.300781 1267 1957.300781 1278.5 L 1957.300781 1286.199219 C 2001.199219 1295.800781 2034.199219 1334.898438 2034.199219 1381.601562 C 2034.199219 1393.101562 2024.898438 1402.398438 2013.398438 1402.398438 C 2001.898438 1402.398438 1992.601562 1393.101562 1992.601562 1381.601562 C 1992.601562 1351.300781 1968.398438 1326.5 1938.199219 1325.601562 C 1937.601562 1325.699219 1937.101562 1325.699219 1936.5 1325.699219 Z M 1936.5 1227.5 C 1809.101562 1227.5 1705.5 1331.101562 1705.5 1458.5 C 1705.5 1585.898438 1809.101562 1689.5 1936.5 1689.5 C 2063.898438 1689.5 2167.5 1585.898438 2167.5 1458.5 C 2167.5 1331.101562 2063.898438 1227.5 1936.5 1227.5 Z M 1936.5 1731.101562 C 1786.199219 1731.101562 1663.898438 1608.800781 1663.898438 1458.5 C 1663.898438 1308.199219 1786.199219 1185.898438 1936.5 1185.898438 C 2086.800781 1185.898438 2209.101562 1308.199219 2209.101562 1458.5 C 2209.101562 1608.800781 2086.800781 1731.101562 1936.5 1731.101562 Z M 1396.699219 1711.800781 C 1385.199219 1711.800781 1375.898438 1702.5 1375.898438 1691 L 1375.898438 1450.898438 C 1375.898438 1439.398438 1385.199219 1430.101562 1396.699219 1430.101562 C 1408.199219 1430.101562 1417.5 1439.398438 1417.5 1450.898438 L 1417.5 1691 C 1417.5 1702.5 1408.199219 1711.800781 1396.699219 1711.800781 Z M 2476.300781 1724.800781 C 2464.800781 1724.800781 2455.5 1715.5 2455.5 1704 L 2455.5 1463.898438 C 2455.5 1452.398438 2464.800781 1443.101562 2476.300781 1443.101562 C 2487.800781 1443.101562 2497.101562 1452.398438 2497.101562 1463.898438 L 2497.101562 1704 C 2497.101562 1715.5 2487.800781 1724.800781 2476.300781 1724.800781 Z M 1262.898438 1784.601562 L 1262.898438 1440.898438 L 1936.5 1104.101562 L 2610.101562 1440.898438 L 2610.101562 1784.601562 L 1262.898438 1784.601562 "/>
<path fill-rule="evenodd" fill="rgb(100%, 100%, 99.609375%)" fill-opacity="1" d="M 1020.699219 2812.199219 C 1020.601562 2811 1020.5 2809.898438 1020.5 2808.699219 L 1020.5 2755.300781 C 1020.5 2736.199219 1036.101562 2720.601562 1055.199219 2720.601562 L 2817.699219 2720.601562 C 2836.800781 2720.601562 2852.398438 2736.199219 2852.398438 2755.300781 L 2852.398438 2808.699219 C 2852.398438 2809.898438 2852.300781 2811.101562 2852.199219 2812.199219 L 1020.699219 2812.199219 "/>
<path fill-rule="evenodd" fill="rgb(100%, 100%, 99.609375%)" fill-opacity="1" d="M 2899.601562 2976.601562 L 973.398438 2976.601562 C 954.300781 2976.601562 938.699219 2961 938.699219 2941.898438 L 938.699219 2888.5 C 938.699219 2869.398438 954.300781 2853.800781 973.398438 2853.800781 L 2899.601562 2853.800781 C 2918.699219 2853.800781 2934.300781 2869.398438 2934.300781 2888.5 L 2934.300781 2941.898438 C 2934.300781 2961 2918.800781 2976.601562 2899.601562 2976.601562 "/>
<path fill-rule="evenodd" fill="rgb(100%, 100%, 99.609375%)" fill-opacity="1" d="M 2648.101562 1411 C 2645 1411 2641.800781 1410.300781 2638.800781 1408.800781 L 1936.398438 1057.601562 L 1234 1408.800781 C 1229.101562 1411.300781 1223.398438 1411.699219 1218.101562 1409.898438 C 1212.898438 1408.199219 1208.5 1404.398438 1206.101562 1399.5 L 1159.199219 1305.800781 C 1154.101562 1295.5 1158.199219 1283 1168.5 1277.898438 L 1927 898.601562 C 1932.898438 895.699219 1939.699219 895.699219 1945.601562 898.601562 L 2704.101562 1277.898438 C 2709 1280.398438 2712.800781 1284.699219 2714.5 1289.898438 C 2716.199219 1295.101562 2715.800781 1300.800781 2713.398438 1305.800781 L 2666.5 1399.5 C 2663.101562 1406.800781 2655.800781 1411 2648.101562 1411 "/>
</svg>
