<?xml version="1.0" encoding="UTF-8"?>
<svg xmlns="http://www.w3.org/2000/svg" xmlns:xlink="http://www.w3.org/1999/xlink" width="3872.98" height="3872.98" viewBox="0 0 3872.98 3872.98">
<defs>
<clipPath id="clip-0">
<path clip-rule="nonzero" d="M 739 697 L 3134 697 L 3134 3176 L 739 3176 Z M 739 697 "/>
</clipPath>
<clipPath id="clip-1">
<path clip-rule="evenodd" d="M 1325.988281 2741.808594 L 1361.300781 2762.160156 L 1481.710938 2553.03125 L 1446.398438 2532.660156 Z M 1561.941406 2774.488281 L 1602.691406 2774.488281 L 1602.691406 2574.398438 L 1561.941406 2574.398438 Z M 1670.46875 2574.398438 L 1670.46875 2774.488281 L 1711.210938 2774.488281 L 1711.210938 2574.398438 Z M 1778.980469 2574.398438 L 1778.980469 2774.488281 L 1819.730469 2774.488281 L 1819.730469 2574.398438 Z M 1651.5 2135.550781 L 1771.921875 2344.691406 L 1807.21875 2324.328125 L 1686.808594 2115.199219 Z M 1530.710938 2356.988281 L 1571.429688 2356.988281 L 1571.429688 2156.898438 L 1530.710938 2156.921875 Z M 1422.199219 2356.988281 L 1462.949219 2356.988281 L 1462.949219 2156.898438 L 1422.199219 2156.921875 Z M 1313.691406 2356.988281 L 1354.441406 2356.988281 L 1354.441406 2156.898438 L 1313.691406 2156.921875 Z M 1970.371094 924.390625 C 2000.589844 878.371094 2049.578125 858.871094 2082.699219 850.621094 L 2082.699219 1059.359375 C 2053.898438 1064.808594 2010.378906 1077.371094 1970.371094 1106.261719 Z M 1902.609375 924.480469 L 1902.609375 1106.199219 C 1862.550781 1077.21875 1818.941406 1064.609375 1790.078125 1059.140625 L 1790.078125 850.199219 C 1823.101562 858.28125 1872.070312 877.878906 1902.609375 924.480469 Z M 1924.050781 1224.621094 C 1917.140625 1221.921875 1911.019531 1216.96875 1907.050781 1210.019531 C 1860.070312 1128.53125 1755.800781 1122.878906 1754.769531 1122.878906 C 1736.640625 1122.101562 1722.308594 1107.171875 1722.308594 1089 L 1722.308594 810.871094 C 1722.308594 801.589844 1726.160156 792.929688 1732.589844 786.46875 C 1739.261719 780.011719 1747.898438 776.589844 1757.398438 776.988281 C 1762.460938 777.171875 1866.128906 782.070312 1936.5 858.269531 C 2006.878906 782.300781 2110.339844 777.390625 2115.398438 777.210938 C 2124.480469 776.621094 2133.519531 780.238281 2140.199219 786.699219 C 2146.859375 793.160156 2150.460938 801.820312 2150.460938 811.101562 L 2150.460938 1089.230469 C 2150.460938 1107.371094 2136.140625 1122.308594 2117.820312 1123.121094 C 2116.839844 1123.121094 2014.890625 1128.640625 1967.160156 1207.519531 C 1962.910156 1216.558594 1954.789062 1223.398438 1944.890625 1225.898438 L 1944.699219 1225.960938 L 1944.628906 1225.96875 L 1944.359375 1226.039062 L 1944.148438 1226.101562 L 1944.101562 1226.109375 L 1943.828125 1226.171875 L 1943.621094 1226.210938 L 1943.558594 1226.21875 L 1943.289062 1226.28125 C 1942.140625 1226.53125 1940.949219 1226.691406 1939.769531 1226.800781 L 1939.769531 1226.808594 L 1939.230469 1226.851562 L 1939.101562 1226.859375 L 1938.949219 1226.871094 L 1938.691406 1226.890625 L 1938.679688 1226.890625 L 1938.410156 1226.910156 L 1938.25 1226.910156 L 1938.140625 1226.921875 L 1937.859375 1226.929688 L 1937.589844 1226.941406 L 1937.578125 1226.941406 L 1937.371094 1226.949219 L 1937.039062 1226.949219 L 1936.488281 1226.960938 L 1936.21875 1226.960938 L 1935.941406 1226.949219 L 1935.621094 1226.949219 L 1935.398438 1226.941406 L 1935.121094 1226.929688 L 1934.859375 1226.921875 L 1934.851562 1226.921875 L 1934.75 1226.910156 L 1934.578125 1226.910156 L 1934.039062 1226.871094 L 1933.878906 1226.859375 L 1933.769531 1226.851562 L 1933.75 1226.851562 L 1933.230469 1226.808594 L 1933.210938 1226.800781 L 1933.019531 1226.789062 L 1932.671875 1226.75 L 1932.410156 1226.71875 L 1932.171875 1226.691406 L 1932.148438 1226.691406 L 1932.128906 1226.679688 L 1931.878906 1226.648438 L 1931.609375 1226.609375 L 1931.589844 1226.609375 L 1931.339844 1226.570312 L 1931.320312 1226.570312 L 1931.070312 1226.53125 L 1931.039062 1226.519531 L 1930.800781 1226.480469 L 1930.53125 1226.441406 L 1930.480469 1226.429688 L 1930.269531 1226.390625 L 1930 1226.339844 L 1929.960938 1226.328125 L 1929.730469 1226.28125 L 1929.429688 1226.21875 L 1929.078125 1226.148438 L 1928.898438 1226.109375 L 1928.429688 1226 L 1928.371094 1225.988281 L 1927.828125 1225.851562 L 1927.789062 1225.828125 L 1927.300781 1225.699219 L 1927.148438 1225.660156 L 1926.78125 1225.550781 L 1926.519531 1225.480469 L 1926.25 1225.398438 L 1925.890625 1225.28125 L 1925.738281 1225.230469 L 1925.28125 1225.070312 L 1925.210938 1225.050781 L 1924.191406 1224.679688 Z M 1639.191406 2356.988281 L 1700.871094 2356.988281 L 1639.191406 2249.941406 Z M 1996 2356.988281 L 1996 2007.269531 L 1117.25 2007.269531 L 1117.25 2356.988281 L 1245.921875 2356.988281 L 1245.921875 2123.039062 C 1245.921875 2104.289062 1261.039062 2089.160156 1279.808594 2089.160156 L 1596.46875 2089.160156 L 1682.359375 2039.601562 C 1690.21875 2035.140625 1699.5 2033.960938 1708.191406 2036.171875 C 1716.878906 2038.589844 1724.328125 2044.230469 1728.75 2051.890625 L 1883.050781 2319.71875 C 1889.988281 2331.808594 1888.691406 2346.488281 1880.730469 2356.988281 Z M 1494.210938 2774.488281 L 1494.210938 2667.578125 L 1432.621094 2774.488281 Z M 1252.648438 2774.488281 C 1244.820312 2763.988281 1243.441406 2749.390625 1250.371094 2737.371094 L 1404.671875 2469.550781 C 1409.109375 2461.691406 1416.570312 2456.011719 1425.21875 2453.828125 C 1433.898438 2451.398438 1443.160156 2452.628906 1451.050781 2457.230469 L 1536.699219 2506.679688 L 1636.578125 2506.640625 L 1637.878906 2506.679688 L 1745.089844 2506.640625 L 1746.398438 2506.679688 L 1853.609375 2506.640625 C 1872.359375 2506.640625 1887.488281 2521.769531 1887.488281 2540.519531 L 1887.488281 2774.488281 L 1996 2774.488281 L 1996 2424.75 L 1117.25 2424.75 L 1117.25 2774.488281 Z M 2227.519531 2264.03125 L 2227.519531 2216.410156 L 2804.941406 2216.410156 L 2804.941406 2264.03125 Z M 1308.839844 1238.828125 L 1308.839844 765.121094 L 2564.140625 765.121094 L 2564.140625 1238.851562 Z M 2838.429688 1641.210938 L 3060.078125 1641.210938 L 3060.078125 1740.050781 C 3060.078125 1794.519531 3015.699219 1838.878906 2961.25 1838.878906 L 2937.238281 1838.878906 C 2882.769531 1838.878906 2838.429688 1794.488281 2838.429688 1740.050781 Z M 2827.691406 1573.25 L 2724.550781 1306.628906 L 2823.890625 1306.628906 L 3025.550781 1573.25 Z M 2549.011719 1573.25 L 2549.011719 1306.628906 L 2651.960938 1306.628906 L 2754.96875 1573.25 Z M 2259.769531 1641.210938 L 2481.210938 1641.210938 L 2481.210938 1739.851562 C 2481.210938 1741.628906 2481.25 1743.398438 2481.308594 1745.171875 C 2478.648438 1797.269531 2435.351562 1838.878906 2382.609375 1838.878906 L 2358.621094 1838.878906 C 2304.128906 1838.878906 2259.769531 1794.488281 2259.769531 1740.050781 Z M 2549.210938 1641.210938 L 2770.648438 1641.210938 L 2770.648438 1740.050781 C 2770.648438 1794.519531 2726.261719 1838.878906 2671.820312 1838.878906 L 2647.839844 1838.878906 C 2594.910156 1838.878906 2551.53125 1796.949219 2549.128906 1744.621094 C 2549.191406 1743.039062 2549.210938 1741.441406 2549.210938 1739.851562 Z M 2259.769531 1573.25 L 2259.769531 1306.628906 L 2481.25 1306.628906 L 2481.25 1573.25 Z M 1970.371094 1641.210938 L 2192.011719 1641.210938 L 2192.011719 1739.851562 L 2192.03125 1741.019531 C 2191.519531 1795.039062 2147.328125 1838.878906 2093.199219 1838.878906 L 2069.199219 1838.878906 C 2014.738281 1838.878906 1970.371094 1794.488281 1970.371094 1740.050781 Z M 1970.371094 1573.25 L 1970.371094 1306.628906 L 2192.011719 1306.628906 L 2192.011719 1573.25 Z M 1680.96875 1573.25 L 1680.96875 1306.628906 L 1902.609375 1306.628906 L 1902.609375 1573.25 Z M 1391.738281 1641.210938 L 1613.171875 1641.210938 L 1613.171875 1739.851562 C 1613.171875 1741.609375 1613.21875 1743.351562 1613.269531 1745.109375 C 1610.621094 1797.238281 1567.320312 1838.878906 1514.570312 1838.878906 L 1490.558594 1838.878906 C 1436.101562 1838.878906 1391.738281 1794.488281 1391.738281 1740.050781 Z M 1681.171875 1641.210938 L 1902.609375 1641.210938 L 1902.609375 1740.050781 C 1902.609375 1794.519531 1858.21875 1838.878906 1803.769531 1838.878906 L 1779.808594 1838.878906 C 1726.878906 1838.878906 1683.53125 1796.988281 1681.078125 1744.699219 C 1681.128906 1743.089844 1681.160156 1741.480469 1681.171875 1739.851562 Z M 1391.738281 1573.25 L 1391.738281 1306.628906 L 1613.199219 1306.628906 L 1613.199219 1573.25 Z M 1116.589844 1573.25 L 1211.101562 1306.628906 L 1323.960938 1306.628906 L 1323.960938 1573.25 Z M 813.125 1641.210938 L 1034.558594 1641.210938 L 1034.558594 1739.851562 C 1034.558594 1741.5 1034.589844 1743.160156 1034.640625 1744.800781 C 1032.148438 1797.070312 988.78125 1838.878906 935.929688 1838.878906 L 911.957031 1838.878906 C 857.488281 1838.878906 813.125 1794.488281 813.125 1740.050781 Z M 1102.53125 1641.210938 L 1323.960938 1641.210938 L 1323.960938 1739.851562 L 1323.980469 1741.019531 C 1323.460938 1795.039062 1279.28125 1838.878906 1225.160156 1838.878906 L 1201.160156 1838.878906 C 1148.261719 1838.878906 1104.890625 1796.988281 1102.449219 1744.699219 C 1102.488281 1743.089844 1102.519531 1741.480469 1102.53125 1739.851562 Z M 847.273438 1573.25 L 1049.078125 1306.628906 L 1139.101562 1306.628906 L 1044.578125 1573.25 Z M 806.863281 3107.851562 L 806.863281 3025.570312 C 806.863281 2980.191406 843.769531 2943.289062 889.144531 2943.289062 L 2983.828125 2943.289062 C 3029.21875 2943.289062 3066.128906 2980.191406 3066.128906 3025.570312 L 3066.128906 3107.851562 Z M 2550.210938 2875.519531 L 2550.210938 2331.789062 L 2736.960938 2331.789062 L 2736.960938 2875.519531 Z M 2295.488281 2875.519531 L 2295.488281 2331.789062 L 2482.449219 2331.789062 L 2482.449219 2875.519531 Z M 959.933594 2875.519531 L 2227.71875 2875.519531 L 2227.71875 2331.789062 L 2193.640625 2331.789062 C 2174.871094 2331.789062 2159.761719 2316.660156 2159.761719 2297.910156 L 2159.761719 2182.53125 C 2159.761719 2163.761719 2174.871094 2148.648438 2193.640625 2148.648438 L 2838.808594 2148.671875 C 2857.578125 2148.671875 2872.710938 2163.800781 2872.710938 2182.550781 L 2872.710938 2297.929688 C 2872.710938 2316.46875 2857.578125 2331.789062 2838.808594 2331.789062 L 2804.75 2331.789062 L 2804.75 2875.519531 L 2913.050781 2875.519531 L 2913.050781 1904.691406 C 2868.941406 1898.238281 2830.371094 1874.441406 2804.53125 1840.441406 C 2774.070312 1880.539062 2725.890625 1906.449219 2671.820312 1906.449219 L 2647.820312 1906.449219 C 2593.789062 1906.449219 2545.640625 1880.578125 2515.171875 1840.539062 C 2484.71875 1880.578125 2436.648438 1906.449219 2382.609375 1906.449219 L 2358.621094 1906.449219 C 2304.550781 1906.449219 2256.359375 1880.539062 2225.890625 1840.449219 C 2195.441406 1880.539062 2147.269531 1906.449219 2093.199219 1906.449219 L 2069.199219 1906.449219 C 2015.148438 1906.449219 1966.988281 1880.550781 1936.519531 1840.480469 C 1906.089844 1880.550781 1857.941406 1906.449219 1803.769531 1906.449219 L 1779.78125 1906.449219 C 1725.738281 1906.449219 1677.601562 1880.589844 1647.128906 1840.539062 C 1616.679688 1880.589844 1568.601562 1906.449219 1514.570312 1906.449219 L 1490.558594 1906.449219 C 1436.5 1906.449219 1388.320312 1880.550781 1357.851562 1840.449219 C 1327.390625 1880.550781 1279.210938 1906.449219 1225.160156 1906.449219 L 1201.160156 1906.449219 C 1147.121094 1906.449219 1098.980469 1880.570312 1068.5 1840.519531 C 1042.640625 1874.53125 1004.070312 1898.308594 959.933594 1904.71875 Z M 3100.011719 3175.640625 C 3118.769531 3175.640625 3133.898438 3160.511719 3133.898438 3141.761719 L 3133.898438 3025.570312 C 3133.898438 2942.898438 3066.53125 2875.519531 2983.828125 2875.519531 L 2980.808594 2875.519531 L 2980.808594 1905.300781 C 3063.390625 1895.589844 3127.648438 1825.191406 3127.828125 1739.851562 L 3127.828125 1607.128906 C 3127.828125 1597.660156 3123.96875 1589.121094 3117.738281 1582.980469 L 2867.660156 1252.378906 C 2861.199219 1243.890625 2851.308594 1238.859375 2840.640625 1238.859375 L 2680.921875 1238.859375 C 2677.101562 1238.179688 2673.121094 1238.148438 2669.179688 1238.859375 L 2631.910156 1238.851562 L 2631.910156 731.238281 C 2631.910156 712.460938 2616.78125 697.339844 2598.019531 697.339844 L 1274.960938 697.339844 C 1256.210938 697.339844 1241.089844 712.460938 1241.089844 731.238281 L 1241.089844 1238.828125 L 1189.851562 1238.828125 C 1188.050781 1238.679688 1186.25 1238.679688 1184.46875 1238.828125 L 1032.109375 1238.828125 C 1021.441406 1238.828125 1011.550781 1243.890625 1005.089844 1252.351562 L 752.875 1585.769531 C 752.382812 1586.378906 751.921875 1587.011719 751.46875 1587.648438 L 751.105469 1588.171875 L 750.976562 1588.359375 L 750.648438 1588.851562 L 750.492188 1589.089844 C 746.269531 1595.671875 744.621094 1603.238281 745.332031 1610.570312 L 745.332031 1739.851562 C 745.332031 1825.121094 809.660156 1895.46875 892.167969 1905.28125 L 892.167969 2875.519531 L 889.144531 2875.519531 C 806.457031 2875.519531 739.097656 2942.898438 739.097656 3025.570312 L 739.097656 3141.761719 C 739.097656 3160.511719 754.214844 3175.640625 772.980469 3175.640625 Z M 1373.800781 2842.269531 L 1083.371094 2842.269531 C 1064.601562 2842.269531 1049.480469 2827.140625 1049.480469 2808.371094 L 1049.480469 1973.429688 C 1049.480469 1954.648438 1064.601562 1939.539062 1083.371094 1939.539062 L 2029.878906 1939.511719 C 2048.640625 1939.511719 2063.769531 1954.628906 2063.769531 1973.390625 L 2063.769531 2808.351562 C 2063.769531 2827.121094 2048.621094 2842.269531 2029.878906 2842.269531 L 1373.800781 2842.269531 "/>
</clipPath>
<linearGradient id="linear-pattern-0" gradientUnits="userSpaceOnUse" x1="0" y1="0" x2="1.000001" y2="0" gradientTransform="matrix(2394.8, 0, 0, 2394.8, 739.097, 1936.49)">
<stop offset="0" stop-color="rgb(95.684814%, 96.861267%, 98.822021%)" stop-opacity="1"/>
<stop offset="0.00390625" stop-color="rgb(95.446777%, 96.69342%, 98.74115%)" stop-opacity="1"/>
<stop offset="0.0078125" stop-color="rgb(95.210266%, 96.525574%, 98.660278%)" stop-opacity="1"/>
<stop offset="0.0117188" stop-color="rgb(94.972229%, 96.356201%, 98.579407%)" stop-opacity="1"/>
<stop offset="0.015625" stop-color="rgb(94.735718%, 96.188354%, 98.498535%)" stop-opacity="1"/>
<stop offset="0.0195312" stop-color="rgb(94.497681%, 96.018982%, 98.416138%)" stop-opacity="1"/>
<stop offset="0.0234375" stop-color="rgb(94.261169%, 95.851135%, 98.335266%)" stop-opacity="1"/>
<stop offset="0.0273438" stop-color="rgb(94.023132%, 95.681763%, 98.254395%)" stop-opacity="1"/>
<stop offset="0.03125" stop-color="rgb(93.786621%, 95.513916%, 98.173523%)" stop-opacity="1"/>
<stop offset="0.0351562" stop-color="rgb(93.548584%, 95.344543%, 98.091125%)" stop-opacity="1"/>
<stop offset="0.0390625" stop-color="rgb(93.310547%, 95.176697%, 98.010254%)" stop-opacity="1"/>
<stop offset="0.0429688" stop-color="rgb(93.07251%, 95.007324%, 97.929382%)" stop-opacity="1"/>
<stop offset="0.046875" stop-color="rgb(92.835999%, 94.839478%, 97.848511%)" stop-opacity="1"/>
<stop offset="0.0507812" stop-color="rgb(92.597961%, 94.670105%, 97.767639%)" stop-opacity="1"/>
<stop offset="0.0546875" stop-color="rgb(92.36145%, 94.502258%, 97.686768%)" stop-opacity="1"/>
<stop offset="0.0585938" stop-color="rgb(92.123413%, 94.334412%, 97.60437%)" stop-opacity="1"/>
<stop offset="0.0625" stop-color="rgb(91.886902%, 94.166565%, 97.523499%)" stop-opacity="1"/>
<stop offset="0.0664062" stop-color="rgb(91.648865%, 93.997192%, 97.442627%)" stop-opacity="1"/>
<stop offset="0.0703125" stop-color="rgb(91.412354%, 93.829346%, 97.361755%)" stop-opacity="1"/>
<stop offset="0.0742187" stop-color="rgb(91.174316%, 93.659973%, 97.279358%)" stop-opacity="1"/>
<stop offset="0.078125" stop-color="rgb(90.936279%, 93.492126%, 97.198486%)" stop-opacity="1"/>
<stop offset="0.0820313" stop-color="rgb(90.698242%, 93.322754%, 97.117615%)" stop-opacity="1"/>
<stop offset="0.0859375" stop-color="rgb(90.461731%, 93.154907%, 97.036743%)" stop-opacity="1"/>
<stop offset="0.0898438" stop-color="rgb(90.223694%, 92.985535%, 96.954346%)" stop-opacity="1"/>
<stop offset="0.09375" stop-color="rgb(89.987183%, 92.817688%, 96.873474%)" stop-opacity="1"/>
<stop offset="0.0976562" stop-color="rgb(89.749146%, 92.648315%, 96.792603%)" stop-opacity="1"/>
<stop offset="0.101562" stop-color="rgb(89.512634%, 92.480469%, 96.711731%)" stop-opacity="1"/>
<stop offset="0.105469" stop-color="rgb(89.274597%, 92.311096%, 96.630859%)" stop-opacity="1"/>
<stop offset="0.109375" stop-color="rgb(89.03656%, 92.14325%, 96.549988%)" stop-opacity="1"/>
<stop offset="0.113281" stop-color="rgb(88.798523%, 91.973877%, 96.46759%)" stop-opacity="1"/>
<stop offset="0.117188" stop-color="rgb(88.562012%, 91.80603%, 96.386719%)" stop-opacity="1"/>
<stop offset="0.121094" stop-color="rgb(88.323975%, 91.638184%, 96.305847%)" stop-opacity="1"/>
<stop offset="0.125" stop-color="rgb(88.087463%, 91.470337%, 96.224976%)" stop-opacity="1"/>
<stop offset="0.128906" stop-color="rgb(87.849426%, 91.300964%, 96.142578%)" stop-opacity="1"/>
<stop offset="0.132812" stop-color="rgb(87.612915%, 91.133118%, 96.061707%)" stop-opacity="1"/>
<stop offset="0.136719" stop-color="rgb(87.374878%, 90.963745%, 95.980835%)" stop-opacity="1"/>
<stop offset="0.140625" stop-color="rgb(87.138367%, 90.795898%, 95.899963%)" stop-opacity="1"/>
<stop offset="0.144531" stop-color="rgb(86.90033%, 90.626526%, 95.819092%)" stop-opacity="1"/>
<stop offset="0.148437" stop-color="rgb(86.662292%, 90.458679%, 95.73822%)" stop-opacity="1"/>
<stop offset="0.152344" stop-color="rgb(86.424255%, 90.289307%, 95.655823%)" stop-opacity="1"/>
<stop offset="0.15625" stop-color="rgb(86.187744%, 90.12146%, 95.574951%)" stop-opacity="1"/>
<stop offset="0.160156" stop-color="rgb(85.949707%, 89.952087%, 95.49408%)" stop-opacity="1"/>
<stop offset="0.164063" stop-color="rgb(85.713196%, 89.784241%, 95.413208%)" stop-opacity="1"/>
<stop offset="0.167969" stop-color="rgb(85.475159%, 89.614868%, 95.330811%)" stop-opacity="1"/>
<stop offset="0.171875" stop-color="rgb(85.238647%, 89.447021%, 95.249939%)" stop-opacity="1"/>
<stop offset="0.175781" stop-color="rgb(85.00061%, 89.279175%, 95.169067%)" stop-opacity="1"/>
<stop offset="0.179688" stop-color="rgb(84.764099%, 89.111328%, 95.088196%)" stop-opacity="1"/>
<stop offset="0.183594" stop-color="rgb(84.526062%, 88.941956%, 95.005798%)" stop-opacity="1"/>
<stop offset="0.1875" stop-color="rgb(84.288025%, 88.774109%, 94.924927%)" stop-opacity="1"/>
<stop offset="0.191406" stop-color="rgb(84.049988%, 88.604736%, 94.844055%)" stop-opacity="1"/>
<stop offset="0.195312" stop-color="rgb(83.813477%, 88.43689%, 94.763184%)" stop-opacity="1"/>
<stop offset="0.199219" stop-color="rgb(83.575439%, 88.267517%, 94.682312%)" stop-opacity="1"/>
<stop offset="0.203125" stop-color="rgb(83.338928%, 88.09967%, 94.60144%)" stop-opacity="1"/>
<stop offset="0.207031" stop-color="rgb(83.100891%, 87.930298%, 94.519043%)" stop-opacity="1"/>
<stop offset="0.210937" stop-color="rgb(82.86438%, 87.762451%, 94.438171%)" stop-opacity="1"/>
<stop offset="0.214844" stop-color="rgb(82.626343%, 87.593079%, 94.3573%)" stop-opacity="1"/>
<stop offset="0.21875" stop-color="rgb(82.388306%, 87.425232%, 94.276428%)" stop-opacity="1"/>
<stop offset="0.222656" stop-color="rgb(82.150269%, 87.255859%, 94.194031%)" stop-opacity="1"/>
<stop offset="0.226563" stop-color="rgb(81.913757%, 87.088013%, 94.113159%)" stop-opacity="1"/>
<stop offset="0.230469" stop-color="rgb(81.67572%, 86.920166%, 94.032288%)" stop-opacity="1"/>
<stop offset="0.234375" stop-color="rgb(81.439209%, 86.752319%, 93.951416%)" stop-opacity="1"/>
<stop offset="0.238281" stop-color="rgb(81.201172%, 86.582947%, 93.870544%)" stop-opacity="1"/>
<stop offset="0.242188" stop-color="rgb(80.964661%, 86.4151%, 93.789673%)" stop-opacity="1"/>
<stop offset="0.246094" stop-color="rgb(80.726624%, 86.245728%, 93.707275%)" stop-opacity="1"/>
<stop offset="0.25" stop-color="rgb(80.490112%, 86.077881%, 93.626404%)" stop-opacity="1"/>
<stop offset="0.253906" stop-color="rgb(80.252075%, 85.908508%, 93.545532%)" stop-opacity="1"/>
<stop offset="0.257812" stop-color="rgb(80.014038%, 85.740662%, 93.464661%)" stop-opacity="1"/>
<stop offset="0.261719" stop-color="rgb(79.776001%, 85.571289%, 93.382263%)" stop-opacity="1"/>
<stop offset="0.265625" stop-color="rgb(79.53949%, 85.403442%, 93.301392%)" stop-opacity="1"/>
<stop offset="0.269531" stop-color="rgb(79.301453%, 85.23407%, 93.22052%)" stop-opacity="1"/>
<stop offset="0.273438" stop-color="rgb(79.064941%, 85.066223%, 93.139648%)" stop-opacity="1"/>
<stop offset="0.277344" stop-color="rgb(78.826904%, 84.896851%, 93.058777%)" stop-opacity="1"/>
<stop offset="0.28125" stop-color="rgb(78.590393%, 84.729004%, 92.977905%)" stop-opacity="1"/>
<stop offset="0.285156" stop-color="rgb(78.352356%, 84.561157%, 92.895508%)" stop-opacity="1"/>
<stop offset="0.289062" stop-color="rgb(78.114319%, 84.393311%, 92.814636%)" stop-opacity="1"/>
<stop offset="0.292969" stop-color="rgb(77.876282%, 84.223938%, 92.733765%)" stop-opacity="1"/>
<stop offset="0.296875" stop-color="rgb(77.639771%, 84.056091%, 92.652893%)" stop-opacity="1"/>
<stop offset="0.300781" stop-color="rgb(77.401733%, 83.886719%, 92.570496%)" stop-opacity="1"/>
<stop offset="0.304687" stop-color="rgb(77.165222%, 83.718872%, 92.489624%)" stop-opacity="1"/>
<stop offset="0.308594" stop-color="rgb(76.927185%, 83.5495%, 92.408752%)" stop-opacity="1"/>
<stop offset="0.3125" stop-color="rgb(76.690674%, 83.381653%, 92.327881%)" stop-opacity="1"/>
<stop offset="0.316406" stop-color="rgb(76.452637%, 83.21228%, 92.245483%)" stop-opacity="1"/>
<stop offset="0.320313" stop-color="rgb(76.216125%, 83.044434%, 92.164612%)" stop-opacity="1"/>
<stop offset="0.324219" stop-color="rgb(75.978088%, 82.875061%, 92.08374%)" stop-opacity="1"/>
<stop offset="0.328125" stop-color="rgb(75.740051%, 82.707214%, 92.002869%)" stop-opacity="1"/>
<stop offset="0.332031" stop-color="rgb(75.502014%, 82.537842%, 91.921997%)" stop-opacity="1"/>
<stop offset="0.335938" stop-color="rgb(75.265503%, 82.369995%, 91.841125%)" stop-opacity="1"/>
<stop offset="0.339844" stop-color="rgb(75.027466%, 82.200623%, 91.758728%)" stop-opacity="1"/>
<stop offset="0.34375" stop-color="rgb(74.790955%, 82.032776%, 91.677856%)" stop-opacity="1"/>
<stop offset="0.347656" stop-color="rgb(74.552917%, 81.864929%, 91.596985%)" stop-opacity="1"/>
<stop offset="0.351562" stop-color="rgb(74.316406%, 81.697083%, 91.516113%)" stop-opacity="1"/>
<stop offset="0.355469" stop-color="rgb(74.078369%, 81.52771%, 91.433716%)" stop-opacity="1"/>
<stop offset="0.359375" stop-color="rgb(73.841858%, 81.359863%, 91.352844%)" stop-opacity="1"/>
<stop offset="0.363281" stop-color="rgb(73.603821%, 81.190491%, 91.271973%)" stop-opacity="1"/>
<stop offset="0.367188" stop-color="rgb(73.365784%, 81.022644%, 91.191101%)" stop-opacity="1"/>
<stop offset="0.371094" stop-color="rgb(73.127747%, 80.853271%, 91.110229%)" stop-opacity="1"/>
<stop offset="0.375" stop-color="rgb(72.891235%, 80.685425%, 91.029358%)" stop-opacity="1"/>
<stop offset="0.378906" stop-color="rgb(72.653198%, 80.516052%, 90.94696%)" stop-opacity="1"/>
<stop offset="0.382812" stop-color="rgb(72.416687%, 80.348206%, 90.866089%)" stop-opacity="1"/>
<stop offset="0.386719" stop-color="rgb(72.17865%, 80.178833%, 90.785217%)" stop-opacity="1"/>
<stop offset="0.390625" stop-color="rgb(71.942139%, 80.010986%, 90.704346%)" stop-opacity="1"/>
<stop offset="0.394531" stop-color="rgb(71.704102%, 79.841614%, 90.621948%)" stop-opacity="1"/>
<stop offset="0.398438" stop-color="rgb(71.466064%, 79.673767%, 90.541077%)" stop-opacity="1"/>
<stop offset="0.402344" stop-color="rgb(71.228027%, 79.50592%, 90.460205%)" stop-opacity="1"/>
<stop offset="0.40625" stop-color="rgb(70.991516%, 79.338074%, 90.379333%)" stop-opacity="1"/>
<stop offset="0.410156" stop-color="rgb(70.753479%, 79.168701%, 90.296936%)" stop-opacity="1"/>
<stop offset="0.414062" stop-color="rgb(70.516968%, 79.000854%, 90.216064%)" stop-opacity="1"/>
<stop offset="0.417969" stop-color="rgb(70.278931%, 78.831482%, 90.135193%)" stop-opacity="1"/>
<stop offset="0.421875" stop-color="rgb(70.042419%, 78.663635%, 90.054321%)" stop-opacity="1"/>
<stop offset="0.425781" stop-color="rgb(69.804382%, 78.494263%, 89.97345%)" stop-opacity="1"/>
<stop offset="0.429687" stop-color="rgb(69.567871%, 78.326416%, 89.892578%)" stop-opacity="1"/>
<stop offset="0.433594" stop-color="rgb(69.329834%, 78.157043%, 89.810181%)" stop-opacity="1"/>
<stop offset="0.4375" stop-color="rgb(69.091797%, 77.989197%, 89.729309%)" stop-opacity="1"/>
<stop offset="0.441406" stop-color="rgb(68.85376%, 77.819824%, 89.648438%)" stop-opacity="1"/>
<stop offset="0.445313" stop-color="rgb(68.617249%, 77.651978%, 89.567566%)" stop-opacity="1"/>
<stop offset="0.449219" stop-color="rgb(68.379211%, 77.482605%, 89.485168%)" stop-opacity="1"/>
<stop offset="0.453125" stop-color="rgb(68.1427%, 77.314758%, 89.404297%)" stop-opacity="1"/>
<stop offset="0.457031" stop-color="rgb(67.904663%, 77.146912%, 89.323425%)" stop-opacity="1"/>
<stop offset="0.460938" stop-color="rgb(67.668152%, 76.979065%, 89.242554%)" stop-opacity="1"/>
<stop offset="0.464844" stop-color="rgb(67.430115%, 76.809692%, 89.161682%)" stop-opacity="1"/>
<stop offset="0.46875" stop-color="rgb(67.193604%, 76.641846%, 89.080811%)" stop-opacity="1"/>
<stop offset="0.472656" stop-color="rgb(66.955566%, 76.472473%, 88.998413%)" stop-opacity="1"/>
<stop offset="0.476562" stop-color="rgb(66.717529%, 76.304626%, 88.917542%)" stop-opacity="1"/>
<stop offset="0.480469" stop-color="rgb(66.479492%, 76.135254%, 88.83667%)" stop-opacity="1"/>
<stop offset="0.484375" stop-color="rgb(66.242981%, 75.967407%, 88.755798%)" stop-opacity="1"/>
<stop offset="0.488281" stop-color="rgb(66.004944%, 75.798035%, 88.673401%)" stop-opacity="1"/>
<stop offset="0.492188" stop-color="rgb(65.768433%, 75.630188%, 88.592529%)" stop-opacity="1"/>
<stop offset="0.496094" stop-color="rgb(65.530396%, 75.460815%, 88.511658%)" stop-opacity="1"/>
<stop offset="0.5" stop-color="rgb(65.293884%, 75.292969%, 88.430786%)" stop-opacity="1"/>
<stop offset="0.503906" stop-color="rgb(65.055847%, 75.123596%, 88.348389%)" stop-opacity="1"/>
<stop offset="0.507812" stop-color="rgb(64.81781%, 74.95575%, 88.267517%)" stop-opacity="1"/>
<stop offset="0.511719" stop-color="rgb(64.579773%, 74.786377%, 88.186646%)" stop-opacity="1"/>
<stop offset="0.515625" stop-color="rgb(64.343262%, 74.61853%, 88.105774%)" stop-opacity="1"/>
<stop offset="0.519531" stop-color="rgb(64.105225%, 74.450684%, 88.024902%)" stop-opacity="1"/>
<stop offset="0.523438" stop-color="rgb(63.868713%, 74.282837%, 87.944031%)" stop-opacity="1"/>
<stop offset="0.527344" stop-color="rgb(63.630676%, 74.113464%, 87.861633%)" stop-opacity="1"/>
<stop offset="0.53125" stop-color="rgb(63.394165%, 73.945618%, 87.780762%)" stop-opacity="1"/>
<stop offset="0.535156" stop-color="rgb(63.156128%, 73.776245%, 87.69989%)" stop-opacity="1"/>
<stop offset="0.539062" stop-color="rgb(62.919617%, 73.608398%, 87.619019%)" stop-opacity="1"/>
<stop offset="0.542969" stop-color="rgb(62.68158%, 73.439026%, 87.536621%)" stop-opacity="1"/>
<stop offset="0.546875" stop-color="rgb(62.443542%, 73.271179%, 87.45575%)" stop-opacity="1"/>
<stop offset="0.550781" stop-color="rgb(62.205505%, 73.101807%, 87.374878%)" stop-opacity="1"/>
<stop offset="0.554688" stop-color="rgb(61.968994%, 72.93396%, 87.294006%)" stop-opacity="1"/>
<stop offset="0.558594" stop-color="rgb(61.730957%, 72.764587%, 87.213135%)" stop-opacity="1"/>
<stop offset="0.5625" stop-color="rgb(61.494446%, 72.596741%, 87.132263%)" stop-opacity="1"/>
<stop offset="0.566406" stop-color="rgb(61.256409%, 72.427368%, 87.049866%)" stop-opacity="1"/>
<stop offset="0.570312" stop-color="rgb(61.019897%, 72.259521%, 86.968994%)" stop-opacity="1"/>
<stop offset="0.574219" stop-color="rgb(60.78186%, 72.091675%, 86.888123%)" stop-opacity="1"/>
<stop offset="0.578125" stop-color="rgb(60.543823%, 71.923828%, 86.807251%)" stop-opacity="1"/>
<stop offset="0.582031" stop-color="rgb(60.305786%, 71.754456%, 86.724854%)" stop-opacity="1"/>
<stop offset="0.585937" stop-color="rgb(60.069275%, 71.586609%, 86.643982%)" stop-opacity="1"/>
<stop offset="0.589844" stop-color="rgb(59.831238%, 71.417236%, 86.56311%)" stop-opacity="1"/>
<stop offset="0.59375" stop-color="rgb(59.594727%, 71.24939%, 86.482239%)" stop-opacity="1"/>
<stop offset="0.597656" stop-color="rgb(59.356689%, 71.080017%, 86.399841%)" stop-opacity="1"/>
<stop offset="0.601562" stop-color="rgb(59.120178%, 70.91217%, 86.31897%)" stop-opacity="1"/>
<stop offset="0.605469" stop-color="rgb(58.882141%, 70.742798%, 86.238098%)" stop-opacity="1"/>
<stop offset="0.609375" stop-color="rgb(58.64563%, 70.574951%, 86.157227%)" stop-opacity="1"/>
<stop offset="0.613281" stop-color="rgb(58.407593%, 70.405579%, 86.076355%)" stop-opacity="1"/>
<stop offset="0.617187" stop-color="rgb(58.169556%, 70.237732%, 85.995483%)" stop-opacity="1"/>
<stop offset="0.621094" stop-color="rgb(57.931519%, 70.068359%, 85.913086%)" stop-opacity="1"/>
<stop offset="0.625" stop-color="rgb(57.695007%, 69.900513%, 85.832214%)" stop-opacity="1"/>
<stop offset="0.628906" stop-color="rgb(57.45697%, 69.732666%, 85.751343%)" stop-opacity="1"/>
<stop offset="0.632813" stop-color="rgb(57.220459%, 69.564819%, 85.670471%)" stop-opacity="1"/>
<stop offset="0.636719" stop-color="rgb(56.982422%, 69.395447%, 85.588074%)" stop-opacity="1"/>
<stop offset="0.640625" stop-color="rgb(56.745911%, 69.2276%, 85.507202%)" stop-opacity="1"/>
<stop offset="0.644531" stop-color="rgb(56.507874%, 69.058228%, 85.426331%)" stop-opacity="1"/>
<stop offset="0.648438" stop-color="rgb(56.271362%, 68.890381%, 85.345459%)" stop-opacity="1"/>
<stop offset="0.652344" stop-color="rgb(56.033325%, 68.721008%, 85.264587%)" stop-opacity="1"/>
<stop offset="0.65625" stop-color="rgb(55.795288%, 68.553162%, 85.183716%)" stop-opacity="1"/>
<stop offset="0.660156" stop-color="rgb(55.557251%, 68.383789%, 85.101318%)" stop-opacity="1"/>
<stop offset="0.664063" stop-color="rgb(55.32074%, 68.215942%, 85.020447%)" stop-opacity="1"/>
<stop offset="0.667969" stop-color="rgb(55.082703%, 68.04657%, 84.939575%)" stop-opacity="1"/>
<stop offset="0.671875" stop-color="rgb(54.846191%, 67.878723%, 84.858704%)" stop-opacity="1"/>
<stop offset="0.675781" stop-color="rgb(54.608154%, 67.709351%, 84.776306%)" stop-opacity="1"/>
<stop offset="0.679688" stop-color="rgb(54.371643%, 67.541504%, 84.695435%)" stop-opacity="1"/>
<stop offset="0.683594" stop-color="rgb(54.133606%, 67.373657%, 84.614563%)" stop-opacity="1"/>
<stop offset="0.6875" stop-color="rgb(53.895569%, 67.205811%, 84.533691%)" stop-opacity="1"/>
<stop offset="0.691406" stop-color="rgb(53.657532%, 67.036438%, 84.451294%)" stop-opacity="1"/>
<stop offset="0.695312" stop-color="rgb(53.421021%, 66.868591%, 84.370422%)" stop-opacity="1"/>
<stop offset="0.699219" stop-color="rgb(53.182983%, 66.699219%, 84.289551%)" stop-opacity="1"/>
<stop offset="0.703125" stop-color="rgb(52.946472%, 66.531372%, 84.208679%)" stop-opacity="1"/>
<stop offset="0.707031" stop-color="rgb(52.708435%, 66.362%, 84.127808%)" stop-opacity="1"/>
<stop offset="0.710938" stop-color="rgb(52.471924%, 66.194153%, 84.046936%)" stop-opacity="1"/>
<stop offset="0.714844" stop-color="rgb(52.233887%, 66.02478%, 83.964539%)" stop-opacity="1"/>
<stop offset="0.71875" stop-color="rgb(51.997375%, 65.856934%, 83.883667%)" stop-opacity="1"/>
<stop offset="0.722656" stop-color="rgb(51.759338%, 65.687561%, 83.802795%)" stop-opacity="1"/>
<stop offset="0.726562" stop-color="rgb(51.521301%, 65.519714%, 83.721924%)" stop-opacity="1"/>
<stop offset="0.730469" stop-color="rgb(51.283264%, 65.350342%, 83.639526%)" stop-opacity="1"/>
<stop offset="0.734375" stop-color="rgb(51.046753%, 65.182495%, 83.558655%)" stop-opacity="1"/>
<stop offset="0.738281" stop-color="rgb(50.808716%, 65.013123%, 83.477783%)" stop-opacity="1"/>
<stop offset="0.742188" stop-color="rgb(50.572205%, 64.845276%, 83.396912%)" stop-opacity="1"/>
<stop offset="0.746094" stop-color="rgb(50.334167%, 64.677429%, 83.31604%)" stop-opacity="1"/>
<stop offset="0.75" stop-color="rgb(50.097656%, 64.509583%, 83.235168%)" stop-opacity="1"/>
<stop offset="0.753906" stop-color="rgb(49.859619%, 64.34021%, 83.152771%)" stop-opacity="1"/>
<stop offset="0.757812" stop-color="rgb(49.623108%, 64.172363%, 83.071899%)" stop-opacity="1"/>
<stop offset="0.761719" stop-color="rgb(49.385071%, 64.002991%, 82.991028%)" stop-opacity="1"/>
<stop offset="0.765625" stop-color="rgb(49.147034%, 63.835144%, 82.910156%)" stop-opacity="1"/>
<stop offset="0.769531" stop-color="rgb(48.908997%, 63.665771%, 82.827759%)" stop-opacity="1"/>
<stop offset="0.773438" stop-color="rgb(48.672485%, 63.497925%, 82.746887%)" stop-opacity="1"/>
<stop offset="0.777344" stop-color="rgb(48.434448%, 63.328552%, 82.666016%)" stop-opacity="1"/>
<stop offset="0.78125" stop-color="rgb(48.197937%, 63.160706%, 82.585144%)" stop-opacity="1"/>
<stop offset="0.785156" stop-color="rgb(47.9599%, 62.991333%, 82.502747%)" stop-opacity="1"/>
<stop offset="0.789062" stop-color="rgb(47.723389%, 62.823486%, 82.421875%)" stop-opacity="1"/>
<stop offset="0.792969" stop-color="rgb(47.485352%, 62.654114%, 82.341003%)" stop-opacity="1"/>
<stop offset="0.796875" stop-color="rgb(47.247314%, 62.486267%, 82.260132%)" stop-opacity="1"/>
<stop offset="0.800781" stop-color="rgb(47.009277%, 62.31842%, 82.17926%)" stop-opacity="1"/>
<stop offset="0.804688" stop-color="rgb(46.772766%, 62.150574%, 82.098389%)" stop-opacity="1"/>
<stop offset="0.808594" stop-color="rgb(46.534729%, 61.981201%, 82.015991%)" stop-opacity="1"/>
<stop offset="0.8125" stop-color="rgb(46.298218%, 61.813354%, 81.93512%)" stop-opacity="1"/>
<stop offset="0.816406" stop-color="rgb(46.060181%, 61.643982%, 81.854248%)" stop-opacity="1"/>
<stop offset="0.820312" stop-color="rgb(45.823669%, 61.476135%, 81.773376%)" stop-opacity="1"/>
<stop offset="0.824219" stop-color="rgb(45.585632%, 61.306763%, 81.690979%)" stop-opacity="1"/>
<stop offset="0.828125" stop-color="rgb(45.349121%, 61.138916%, 81.610107%)" stop-opacity="1"/>
<stop offset="0.832031" stop-color="rgb(45.111084%, 60.969543%, 81.529236%)" stop-opacity="1"/>
<stop offset="0.835937" stop-color="rgb(44.873047%, 60.801697%, 81.448364%)" stop-opacity="1"/>
<stop offset="0.839844" stop-color="rgb(44.63501%, 60.632324%, 81.367493%)" stop-opacity="1"/>
<stop offset="0.84375" stop-color="rgb(44.398499%, 60.464478%, 81.286621%)" stop-opacity="1"/>
<stop offset="0.847656" stop-color="rgb(44.160461%, 60.295105%, 81.204224%)" stop-opacity="1"/>
<stop offset="0.851562" stop-color="rgb(43.92395%, 60.127258%, 81.123352%)" stop-opacity="1"/>
<stop offset="0.855469" stop-color="rgb(43.685913%, 59.959412%, 81.04248%)" stop-opacity="1"/>
<stop offset="0.859375" stop-color="rgb(43.449402%, 59.791565%, 80.961609%)" stop-opacity="1"/>
<stop offset="0.863281" stop-color="rgb(43.211365%, 59.622192%, 80.879211%)" stop-opacity="1"/>
<stop offset="0.867187" stop-color="rgb(42.973328%, 59.454346%, 80.79834%)" stop-opacity="1"/>
<stop offset="0.871094" stop-color="rgb(42.735291%, 59.284973%, 80.717468%)" stop-opacity="1"/>
<stop offset="0.875" stop-color="rgb(42.498779%, 59.117126%, 80.636597%)" stop-opacity="1"/>
<stop offset="0.878906" stop-color="rgb(42.260742%, 58.947754%, 80.554199%)" stop-opacity="1"/>
<stop offset="0.882813" stop-color="rgb(42.024231%, 58.779907%, 80.473328%)" stop-opacity="1"/>
<stop offset="0.886719" stop-color="rgb(41.786194%, 58.610535%, 80.392456%)" stop-opacity="1"/>
<stop offset="0.890625" stop-color="rgb(41.549683%, 58.442688%, 80.311584%)" stop-opacity="1"/>
<stop offset="0.894531" stop-color="rgb(41.311646%, 58.273315%, 80.230713%)" stop-opacity="1"/>
<stop offset="0.898438" stop-color="rgb(41.075134%, 58.105469%, 80.149841%)" stop-opacity="1"/>
<stop offset="0.902344" stop-color="rgb(40.837097%, 57.936096%, 80.067444%)" stop-opacity="1"/>
<stop offset="0.90625" stop-color="rgb(40.59906%, 57.76825%, 79.986572%)" stop-opacity="1"/>
<stop offset="0.910156" stop-color="rgb(40.361023%, 57.598877%, 79.905701%)" stop-opacity="1"/>
<stop offset="0.914063" stop-color="rgb(40.124512%, 57.43103%, 79.824829%)" stop-opacity="1"/>
<stop offset="0.917969" stop-color="rgb(39.886475%, 57.263184%, 79.742432%)" stop-opacity="1"/>
<stop offset="0.921875" stop-color="rgb(39.649963%, 57.095337%, 79.66156%)" stop-opacity="1"/>
<stop offset="0.925781" stop-color="rgb(39.411926%, 56.925964%, 79.580688%)" stop-opacity="1"/>
<stop offset="0.929688" stop-color="rgb(39.175415%, 56.758118%, 79.499817%)" stop-opacity="1"/>
<stop offset="0.933594" stop-color="rgb(38.937378%, 56.588745%, 79.418945%)" stop-opacity="1"/>
<stop offset="0.9375" stop-color="rgb(38.700867%, 56.420898%, 79.338074%)" stop-opacity="1"/>
<stop offset="0.941406" stop-color="rgb(38.46283%, 56.251526%, 79.255676%)" stop-opacity="1"/>
<stop offset="0.945312" stop-color="rgb(38.224792%, 56.083679%, 79.174805%)" stop-opacity="1"/>
<stop offset="0.949219" stop-color="rgb(37.986755%, 55.914307%, 79.093933%)" stop-opacity="1"/>
<stop offset="0.953125" stop-color="rgb(37.750244%, 55.74646%, 79.013062%)" stop-opacity="1"/>
<stop offset="0.957031" stop-color="rgb(37.512207%, 55.577087%, 78.930664%)" stop-opacity="1"/>
<stop offset="0.960938" stop-color="rgb(37.275696%, 55.409241%, 78.849792%)" stop-opacity="1"/>
<stop offset="0.964844" stop-color="rgb(37.037659%, 55.239868%, 78.768921%)" stop-opacity="1"/>
<stop offset="0.96875" stop-color="rgb(36.801147%, 55.072021%, 78.688049%)" stop-opacity="1"/>
<stop offset="0.972656" stop-color="rgb(36.56311%, 54.904175%, 78.607178%)" stop-opacity="1"/>
<stop offset="0.976562" stop-color="rgb(36.325073%, 54.736328%, 78.526306%)" stop-opacity="1"/>
<stop offset="0.980469" stop-color="rgb(36.087036%, 54.566956%, 78.443909%)" stop-opacity="1"/>
<stop offset="0.984375" stop-color="rgb(35.850525%, 54.399109%, 78.363037%)" stop-opacity="1"/>
<stop offset="0.988281" stop-color="rgb(35.612488%, 54.229736%, 78.282166%)" stop-opacity="1"/>
<stop offset="0.992188" stop-color="rgb(35.375977%, 54.06189%, 78.201294%)" stop-opacity="1"/>
<stop offset="0.996094" stop-color="rgb(35.137939%, 53.892517%, 78.118896%)" stop-opacity="1"/>
<stop offset="1" stop-color="rgb(34.901428%, 53.72467%, 78.038025%)" stop-opacity="1"/>
</linearGradient>
</defs>
<path fill-rule="evenodd" fill="rgb(20.776367%, 43.138123%, 77.34375%)" fill-opacity="1" d="M 1936.488281 0 C 3001.578125 0 3872.980469 871.421875 3872.980469 1936.488281 C 3872.980469 3001.578125 3001.578125 3872.980469 1936.488281 3872.980469 C 871.414062 3872.980469 0 3001.578125 0 1936.488281 C 0 871.421875 871.414062 0 1936.488281 0 "/>
<g clip-path="url(#clip-0)">
<g clip-path="url(#clip-1)">
<path fill-rule="nonzero" fill="url(#linear-pattern-0)" d="M 739.097656 697.339844 L 739.097656 3175.640625 L 3133.898438 3175.640625 L 3133.898438 697.339844 Z M 739.097656 697.339844 "/>
</g>
</g>
</svg>
