<?xml version="1.0" encoding="UTF-8"?>
<svg xmlns="http://www.w3.org/2000/svg" xmlns:xlink="http://www.w3.org/1999/xlink" width="3873" height="3873" viewBox="0 0 3873 3873">
<defs>
<clipPath id="clip-0">
<path clip-rule="nonzero" d="M 45 45 L 3828 45 L 3828 3828 L 45 3828 Z M 45 45 "/>
</clipPath>
<clipPath id="clip-1">
<path clip-rule="evenodd" d="M 1936.5 45.398438 C 2980.929688 45.398438 3827.601562 892.070312 3827.601562 1936.5 C 3827.601562 2980.929688 2980.929688 3827.601562 1936.5 3827.601562 C 892.074219 3827.601562 45.398438 2980.929688 45.398438 1936.5 C 45.398438 892.070312 892.074219 45.398438 1936.5 45.398438 "/>
</clipPath>
<linearGradient id="linear-pattern-0" gradientUnits="userSpaceOnUse" x1="0.00000813014" y1="0" x2="1.000002" y2="0" gradientTransform="matrix(3782.23, 3782.22, 3782.22, -3782.23, 45.3685, 45.37)">
<stop offset="0" stop-color="rgb(93.72406%, 15.852356%, 60.992432%)" stop-opacity="1"/>
<stop offset="0.015625" stop-color="rgb(93.710327%, 15.661621%, 60.908508%)" stop-opacity="1"/>
<stop offset="0.03125" stop-color="rgb(93.681335%, 15.292358%, 60.644531%)" stop-opacity="1"/>
<stop offset="0.046875" stop-color="rgb(93.65387%, 14.93988%, 60.28595%)" stop-opacity="1"/>
<stop offset="0.0546875" stop-color="rgb(93.634033%, 14.685059%, 59.973145%)" stop-opacity="1"/>
<stop offset="0.0625" stop-color="rgb(93.621826%, 14.524841%, 59.703064%)" stop-opacity="1"/>
<stop offset="0.0703125" stop-color="rgb(93.60199%, 14.276123%, 59.436035%)" stop-opacity="1"/>
<stop offset="0.078125" stop-color="rgb(93.574524%, 13.922119%, 59.176636%)" stop-opacity="1"/>
<stop offset="0.0859375" stop-color="rgb(93.553162%, 13.63678%, 58.950806%)" stop-opacity="1"/>
<stop offset="0.09375" stop-color="rgb(93.537903%, 13.446045%, 58.7677%)" stop-opacity="1"/>
<stop offset="0.109375" stop-color="rgb(93.530273%, 13.357544%, 58.578491%)" stop-opacity="1"/>
<stop offset="0.125" stop-color="rgb(93.383789%, 13.224792%, 58.314514%)" stop-opacity="1"/>
<stop offset="0.132812" stop-color="rgb(93.103027%, 13.034058%, 58.033752%)" stop-opacity="1"/>
<stop offset="0.140625" stop-color="rgb(92.810059%, 12.919617%, 57.785034%)" stop-opacity="1"/>
<stop offset="0.148437" stop-color="rgb(92.552185%, 12.797546%, 57.559204%)" stop-opacity="1"/>
<stop offset="0.15625" stop-color="rgb(92.367554%, 12.654114%, 57.377625%)" stop-opacity="1"/>
<stop offset="0.164062" stop-color="rgb(92.155457%, 12.521362%, 57.17926%)" stop-opacity="1"/>
<stop offset="0.171875" stop-color="rgb(91.868591%, 12.408447%, 56.939697%)" stop-opacity="1"/>
<stop offset="0.179688" stop-color="rgb(91.557312%, 12.30011%, 56.715393%)" stop-opacity="1"/>
<stop offset="0.1875" stop-color="rgb(91.247559%, 12.181091%, 56.536865%)" stop-opacity="1"/>
<stop offset="0.195312" stop-color="rgb(90.983582%, 12.059021%, 56.347656%)" stop-opacity="1"/>
<stop offset="0.203125" stop-color="rgb(90.795898%, 11.930847%, 56.109619%)" stop-opacity="1"/>
<stop offset="0.210938" stop-color="rgb(90.592957%, 11.811829%, 55.857849%)" stop-opacity="1"/>
<stop offset="0.21875" stop-color="rgb(90.315247%, 11.705017%, 55.607605%)" stop-opacity="1"/>
<stop offset="0.226562" stop-color="rgb(90.048218%, 11.593628%, 55.384827%)" stop-opacity="1"/>
<stop offset="0.234375" stop-color="rgb(89.855957%, 11.459351%, 55.204773%)" stop-opacity="1"/>
<stop offset="0.242187" stop-color="rgb(89.659119%, 11.329651%, 55.021667%)" stop-opacity="1"/>
<stop offset="0.25" stop-color="rgb(89.387512%, 11.219788%, 54.797363%)" stop-opacity="1"/>
<stop offset="0.257812" stop-color="rgb(89.080811%, 11.11908%, 54.576111%)" stop-opacity="1"/>
<stop offset="0.265625" stop-color="rgb(88.775635%, 11.00769%, 54.400635%)" stop-opacity="1"/>
<stop offset="0.273438" stop-color="rgb(88.504028%, 10.89325%, 54.226685%)" stop-opacity="1"/>
<stop offset="0.28125" stop-color="rgb(88.305664%, 10.772705%, 54.005432%)" stop-opacity="1"/>
<stop offset="0.289062" stop-color="rgb(88.117981%, 10.658264%, 53.762817%)" stop-opacity="1"/>
<stop offset="0.296875" stop-color="rgb(87.857056%, 10.55603%, 53.523254%)" stop-opacity="1"/>
<stop offset="0.304688" stop-color="rgb(87.582397%, 10.456848%, 53.286743%)" stop-opacity="1"/>
<stop offset="0.3125" stop-color="rgb(87.382507%, 10.345459%, 53.04718%)" stop-opacity="1"/>
<stop offset="0.320312" stop-color="rgb(87.200928%, 10.231018%, 52.809143%)" stop-opacity="1"/>
<stop offset="0.328125" stop-color="rgb(86.94458%, 10.13031%, 52.572632%)" stop-opacity="1"/>
<stop offset="0.335938" stop-color="rgb(86.642456%, 10.040283%, 52.340698%)" stop-opacity="1"/>
<stop offset="0.34375" stop-color="rgb(86.341858%, 9.94873%, 52.110291%)" stop-opacity="1"/>
<stop offset="0.351563" stop-color="rgb(86.04126%, 9.860229%, 51.879883%)" stop-opacity="1"/>
<stop offset="0.359375" stop-color="rgb(85.740662%, 9.771729%, 51.651001%)" stop-opacity="1"/>
<stop offset="0.367188" stop-color="rgb(85.441589%, 9.683228%, 51.423645%)" stop-opacity="1"/>
<stop offset="0.375" stop-color="rgb(85.142517%, 9.596252%, 51.197815%)" stop-opacity="1"/>
<stop offset="0.382812" stop-color="rgb(84.843445%, 9.510803%, 50.971985%)" stop-opacity="1"/>
<stop offset="0.390625" stop-color="rgb(84.544373%, 9.423828%, 50.747681%)" stop-opacity="1"/>
<stop offset="0.394531" stop-color="rgb(84.248352%, 9.359741%, 50.523376%)" stop-opacity="1"/>
<stop offset="0.398437" stop-color="rgb(84.098816%, 9.336853%, 50.410461%)" stop-opacity="1"/>
<stop offset="0.402344" stop-color="rgb(83.955383%, 9.391785%, 50.289917%)" stop-opacity="1"/>
<stop offset="0.40625" stop-color="rgb(83.811951%, 9.446716%, 50.170898%)" stop-opacity="1"/>
<stop offset="0.410156" stop-color="rgb(83.666992%, 9.484863%, 50.053406%)" stop-opacity="1"/>
<stop offset="0.414062" stop-color="rgb(83.522034%, 9.521484%, 49.935913%)" stop-opacity="1"/>
<stop offset="0.421875" stop-color="rgb(83.374023%, 9.47876%, 49.82605%)" stop-opacity="1"/>
<stop offset="0.429687" stop-color="rgb(83.078003%, 9.396362%, 49.607849%)" stop-opacity="1"/>
<stop offset="0.4375" stop-color="rgb(82.781982%, 9.313965%, 49.389648%)" stop-opacity="1"/>
<stop offset="0.441406" stop-color="rgb(82.487488%, 9.233093%, 49.168396%)" stop-opacity="1"/>
<stop offset="0.445312" stop-color="rgb(82.339478%, 9.191895%, 49.055481%)" stop-opacity="1"/>
<stop offset="0.449219" stop-color="rgb(82.192993%, 9.161377%, 48.905945%)" stop-opacity="1"/>
<stop offset="0.453125" stop-color="rgb(82.046509%, 9.129333%, 48.757935%)" stop-opacity="1"/>
<stop offset="0.457031" stop-color="rgb(81.893921%, 9.098816%, 48.612976%)" stop-opacity="1"/>
<stop offset="0.460938" stop-color="rgb(81.741333%, 9.066772%, 48.468018%)" stop-opacity="1"/>
<stop offset="0.464844" stop-color="rgb(81.523132%, 9.042358%, 48.365784%)" stop-opacity="1"/>
<stop offset="0.46875" stop-color="rgb(81.303406%, 9.017944%, 48.26355%)" stop-opacity="1"/>
<stop offset="0.472656" stop-color="rgb(81.091309%, 8.992004%, 48.15979%)" stop-opacity="1"/>
<stop offset="0.476562" stop-color="rgb(80.879211%, 8.964539%, 48.057556%)" stop-opacity="1"/>
<stop offset="0.484375" stop-color="rgb(80.804443%, 8.911133%, 47.949219%)" stop-opacity="1"/>
<stop offset="0.492188" stop-color="rgb(80.656433%, 8.805847%, 47.731018%)" stop-opacity="1"/>
<stop offset="0.496094" stop-color="rgb(80.436707%, 8.721924%, 47.477722%)" stop-opacity="1"/>
<stop offset="0.5" stop-color="rgb(80.290222%, 8.692932%, 47.33429%)" stop-opacity="1"/>
<stop offset="0.503906" stop-color="rgb(80.14679%, 8.66394%, 47.189331%)" stop-opacity="1"/>
<stop offset="0.507812" stop-color="rgb(80.001831%, 8.633423%, 47.045898%)" stop-opacity="1"/>
<stop offset="0.515625" stop-color="rgb(79.858398%, 8.67157%, 47.012329%)" stop-opacity="1"/>
<stop offset="0.523438" stop-color="rgb(79.571533%, 8.747864%, 46.943665%)" stop-opacity="1"/>
<stop offset="0.527344" stop-color="rgb(79.283142%, 8.760071%, 46.774292%)" stop-opacity="1"/>
<stop offset="0.53125" stop-color="rgb(79.138184%, 8.734131%, 46.635437%)" stop-opacity="1"/>
<stop offset="0.535156" stop-color="rgb(78.994751%, 8.705139%, 46.49353%)" stop-opacity="1"/>
<stop offset="0.539062" stop-color="rgb(78.851318%, 8.676147%, 46.351624%)" stop-opacity="1"/>
<stop offset="0.542969" stop-color="rgb(78.645325%, 8.555603%, 46.180725%)" stop-opacity="1"/>
<stop offset="0.546875" stop-color="rgb(78.437805%, 8.435059%, 46.008301%)" stop-opacity="1"/>
<stop offset="0.554687" stop-color="rgb(78.227234%, 8.308411%, 45.835876%)" stop-opacity="1"/>
<stop offset="0.5625" stop-color="rgb(77.928162%, 8.122253%, 45.552063%)" stop-opacity="1"/>
<stop offset="0.570312" stop-color="rgb(77.770996%, 8.01239%, 45.33844%)" stop-opacity="1"/>
<stop offset="0.578125" stop-color="rgb(77.565002%, 7.925415%, 45.137024%)" stop-opacity="1"/>
<stop offset="0.585937" stop-color="rgb(77.288818%, 7.853699%, 44.93866%)" stop-opacity="1"/>
<stop offset="0.59375" stop-color="rgb(76.950073%, 7.771301%, 44.740295%)" stop-opacity="1"/>
<stop offset="0.601563" stop-color="rgb(76.548767%, 7.673645%, 44.537354%)" stop-opacity="1"/>
<stop offset="0.609375" stop-color="rgb(76.243591%, 7.575989%, 44.335938%)" stop-opacity="1"/>
<stop offset="0.617188" stop-color="rgb(76.072693%, 7.476807%, 44.134521%)" stop-opacity="1"/>
<stop offset="0.625" stop-color="rgb(75.883484%, 7.374573%, 43.902588%)" stop-opacity="1"/>
<stop offset="0.632813" stop-color="rgb(75.63324%, 7.264709%, 43.629456%)" stop-opacity="1"/>
<stop offset="0.636719" stop-color="rgb(75.361633%, 7.177734%, 43.354797%)" stop-opacity="1"/>
<stop offset="0.640625" stop-color="rgb(75.221252%, 7.144165%, 43.218994%)" stop-opacity="1"/>
<stop offset="0.644531" stop-color="rgb(75.082397%, 7.121277%, 43.086243%)" stop-opacity="1"/>
<stop offset="0.648438" stop-color="rgb(74.943542%, 7.098389%, 42.955017%)" stop-opacity="1"/>
<stop offset="0.65625" stop-color="rgb(74.809265%, 7.102966%, 42.863464%)" stop-opacity="1"/>
<stop offset="0.664063" stop-color="rgb(74.543762%, 7.124329%, 42.697144%)" stop-opacity="1"/>
<stop offset="0.671875" stop-color="rgb(74.32251%, 7.168579%, 42.549133%)" stop-opacity="1"/>
<stop offset="0.679688" stop-color="rgb(74.165344%, 7.228088%, 42.405701%)" stop-opacity="1"/>
<stop offset="0.6875" stop-color="rgb(73.944092%, 7.298279%, 42.240906%)" stop-opacity="1"/>
<stop offset="0.695313" stop-color="rgb(73.59314%, 7.376099%, 42.037964%)" stop-opacity="1"/>
<stop offset="0.703125" stop-color="rgb(73.236084%, 7.446289%, 41.821289%)" stop-opacity="1"/>
<stop offset="0.710938" stop-color="rgb(72.949219%, 7.502747%, 41.600037%)" stop-opacity="1"/>
<stop offset="0.71875" stop-color="rgb(72.689819%, 7.551575%, 41.378784%)" stop-opacity="1"/>
<stop offset="0.726563" stop-color="rgb(72.431946%, 7.598877%, 41.157532%)" stop-opacity="1"/>
<stop offset="0.734375" stop-color="rgb(72.172546%, 7.643127%, 40.957642%)" stop-opacity="1"/>
<stop offset="0.742188" stop-color="rgb(71.914673%, 7.678223%, 40.792847%)" stop-opacity="1"/>
<stop offset="0.75" stop-color="rgb(71.620178%, 7.720947%, 40.631104%)" stop-opacity="1"/>
<stop offset="0.757813" stop-color="rgb(71.260071%, 7.785034%, 40.435791%)" stop-opacity="1"/>
<stop offset="0.765625" stop-color="rgb(70.899963%, 7.855225%, 40.223694%)" stop-opacity="1"/>
<stop offset="0.773438" stop-color="rgb(70.608521%, 7.90863%, 40.008545%)" stop-opacity="1"/>
<stop offset="0.78125" stop-color="rgb(70.326233%, 7.946777%, 39.790344%)" stop-opacity="1"/>
<stop offset="0.789063" stop-color="rgb(69.98291%, 7.969666%, 39.567566%)" stop-opacity="1"/>
<stop offset="0.796875" stop-color="rgb(69.631958%, 7.98645%, 39.361572%)" stop-opacity="1"/>
<stop offset="0.804688" stop-color="rgb(69.342041%, 8.009338%, 39.195251%)" stop-opacity="1"/>
<stop offset="0.8125" stop-color="rgb(69.087219%, 8.041382%, 39.039612%)" stop-opacity="1"/>
<stop offset="0.820313" stop-color="rgb(68.835449%, 8.079529%, 38.847351%)" stop-opacity="1"/>
<stop offset="0.828125" stop-color="rgb(68.562317%, 8.120728%, 38.619995%)" stop-opacity="1"/>
<stop offset="0.835938" stop-color="rgb(68.231201%, 8.151245%, 38.354492%)" stop-opacity="1"/>
<stop offset="0.84375" stop-color="rgb(67.881775%, 8.177185%, 38.088989%)" stop-opacity="1"/>
<stop offset="0.859375" stop-color="rgb(67.481995%, 8.21228%, 37.826538%)" stop-opacity="1"/>
<stop offset="0.867188" stop-color="rgb(67.190552%, 8.235168%, 37.611389%)" stop-opacity="1"/>
<stop offset="0.875" stop-color="rgb(67.042542%, 8.235168%, 37.445068%)" stop-opacity="1"/>
<stop offset="0.882812" stop-color="rgb(66.769409%, 8.250427%, 37.211609%)" stop-opacity="1"/>
<stop offset="0.890625" stop-color="rgb(66.416931%, 8.273315%, 36.941528%)" stop-opacity="1"/>
<stop offset="0.898438" stop-color="rgb(66.122437%, 8.297729%, 36.747742%)" stop-opacity="1"/>
<stop offset="0.90625" stop-color="rgb(65.863037%, 8.322144%, 36.595154%)" stop-opacity="1"/>
<stop offset="0.914062" stop-color="rgb(65.545654%, 8.345032%, 36.372375%)" stop-opacity="1"/>
<stop offset="0.921875" stop-color="rgb(65.193176%, 8.363342%, 36.094666%)" stop-opacity="1"/>
<stop offset="0.929687" stop-color="rgb(64.904785%, 8.360291%, 35.848999%)" stop-opacity="1"/>
<stop offset="0.9375" stop-color="rgb(64.671326%, 8.34198%, 35.629272%)" stop-opacity="1"/>
<stop offset="0.945312" stop-color="rgb(64.431763%, 8.354187%, 35.420227%)" stop-opacity="1"/>
<stop offset="0.953125" stop-color="rgb(64.18457%, 8.389282%, 35.217285%)" stop-opacity="1"/>
<stop offset="0.960937" stop-color="rgb(63.874817%, 8.409119%, 35.011292%)" stop-opacity="1"/>
<stop offset="0.96875" stop-color="rgb(63.514709%, 8.413696%, 34.799194%)" stop-opacity="1"/>
<stop offset="0.976562" stop-color="rgb(63.154602%, 8.425903%, 34.55658%)" stop-opacity="1"/>
<stop offset="0.984375" stop-color="rgb(62.799072%, 8.442688%, 34.281921%)" stop-opacity="1"/>
<stop offset="0.992187" stop-color="rgb(62.507629%, 8.43811%, 34.039307%)" stop-opacity="1"/>
<stop offset="1" stop-color="rgb(62.275696%, 8.415222%, 33.824158%)" stop-opacity="1"/>
</linearGradient>
</defs>
<g clip-path="url(#clip-0)">
<g clip-path="url(#clip-1)">
<path fill-rule="nonzero" fill="url(#linear-pattern-0)" d="M -1845.699219 1936.503906 L 1936.496094 -1845.699219 L 5718.699219 1936.496094 L 1936.503906 5718.699219 Z M -1845.699219 1936.503906 "/>
</g>
</g>
<path fill-rule="evenodd" fill="rgb(100%, 100%, 100%)" fill-opacity="1" d="M 1383.199219 2452.101562 L 887.800781 2452.101562 C 805.898438 2452.101562 739.300781 2386.5 732.898438 2299.199219 L 641.300781 1051.699219 C 640.699219 1043.5 643.5 1035.398438 649.199219 1029.300781 C 654.800781 1023.199219 662.699219 1019.800781 670.898438 1019.800781 L 1600.300781 1019.800781 C 1608.601562 1019.800781 1616.5 1023.300781 1622 1029.300781 C 1627.601562 1035.300781 1630.398438 1043.5 1629.898438 1051.699219 L 1538.199219 2299.199219 C 1531.699219 2386.398438 1465.101562 2452.101562 1383.199219 2452.101562 Z M 702.699219 1079.300781 L 792.101562 2295 C 796.199219 2350.800781 837.300781 2392.800781 887.800781 2392.800781 L 1383.199219 2392.800781 C 1433.699219 2392.800781 1474.800781 2350.800781 1478.898438 2295 L 1568.300781 1079.300781 L 702.699219 1079.300781 "/>
<path fill-rule="evenodd" fill="rgb(100%, 100%, 100%)" fill-opacity="1" d="M 1238.5 2602.101562 L 1032.601562 2602.101562 C 1016.199219 2602.101562 1002.898438 2588.800781 1002.898438 2572.398438 C 1002.898438 2556 1016.199219 2542.699219 1032.601562 2542.699219 L 1238.5 2542.699219 C 1254.898438 2542.699219 1268.101562 2556 1268.101562 2572.398438 C 1268.101562 2588.800781 1254.800781 2602.101562 1238.5 2602.101562 "/>
<path fill-rule="evenodd" fill="rgb(100%, 100%, 100%)" fill-opacity="1" d="M 1565.898438 1477.300781 L 705.101562 1477.300781 C 688.699219 1477.300781 675.398438 1464 675.398438 1447.601562 C 675.398438 1431.101562 688.699219 1417.898438 705.101562 1417.898438 L 1565.898438 1417.898438 C 1582.300781 1417.898438 1595.5 1431.101562 1595.5 1447.601562 C 1595.5 1464 1582.300781 1477.300781 1565.898438 1477.300781 "/>
<path fill-rule="evenodd" fill="rgb(100%, 100%, 100%)" fill-opacity="1" d="M 1523.5 2054.101562 L 747.5 2054.101562 C 731.101562 2054.101562 717.800781 2040.800781 717.800781 2024.398438 C 717.800781 2008 731.101562 1994.699219 747.5 1994.699219 L 1523.601562 1994.699219 C 1540 1994.699219 1553.199219 2008 1553.199219 2024.398438 C 1553.101562 2040.800781 1539.898438 2054.101562 1523.5 2054.101562 "/>
<path fill-rule="evenodd" fill="rgb(100%, 100%, 100%)" fill-opacity="1" d="M 1135.5 2777.898438 C 1062.898438 2777.898438 994.898438 2772.699219 944.199219 2763.199219 C 897.5 2754.5 835.5 2737.699219 835.5 2691.699219 L 835.5 2422.5 C 835.5 2406.101562 848.800781 2392.800781 865.101562 2392.800781 C 881.5 2392.800781 894.800781 2406.101562 894.800781 2422.5 L 894.800781 2686.398438 C 913.199219 2700 997.601562 2718.601562 1135.601562 2718.601562 C 1273.601562 2718.601562 1358 2700.101562 1376.398438 2686.398438 L 1376.398438 2422.5 C 1376.398438 2406.101562 1389.699219 2392.800781 1406 2392.800781 C 1422.398438 2392.800781 1435.699219 2406.101562 1435.699219 2422.5 L 1435.699219 2691.699219 C 1435.699219 2737.699219 1373.601562 2754.601562 1327 2763.199219 C 1276.101562 2772.699219 1208.101562 2777.898438 1135.5 2777.898438 "/>
<path fill-rule="evenodd" fill="rgb(100%, 100%, 100%)" fill-opacity="1" d="M 2210.601562 2814.199219 C 2058.398438 2814.199219 1916.300781 2802.898438 1810.5 2782 C 1673.699219 2755.199219 1607.300781 2714.601562 1607.300781 2658 L 1607.300781 2129.601562 C 1607.300781 2113.199219 1620.5 2100 1637 2100 L 2784.398438 2100 C 2800.800781 2100 2814 2113.300781 2814 2129.699219 L 2814 2658 C 2814 2714.699219 2747.5 2755.199219 2610.800781 2782 C 2504.898438 2802.898438 2362.800781 2814.199219 2210.601562 2814.199219 Z M 1666.601562 2159.199219 L 1666.601562 2657.898438 C 1666.601562 2667.699219 1694.5 2698.699219 1821.898438 2723.699219 C 1924.101562 2743.699219 2062.101562 2754.800781 2210.601562 2754.800781 C 2359.101562 2754.800781 2497.101562 2743.699219 2599.300781 2723.699219 C 2726.699219 2698.699219 2754.601562 2667.699219 2754.601562 2657.898438 L 2754.601562 2159.199219 L 1666.601562 2159.199219 "/>
<path fill-rule="evenodd" fill="rgb(100%, 100%, 100%)" fill-opacity="1" d="M 2717.5 2159.199219 C 2701.101562 2159.199219 2687.800781 2145.898438 2687.800781 2129.601562 L 2687.800781 2006.5 C 2687.800781 1998.699219 2681.300781 1992.199219 2673.5 1992.199219 L 1747.601562 1992.199219 C 1739.898438 1992.199219 1733.300781 1998.699219 1733.300781 2006.5 L 1733.300781 2129.601562 C 1733.300781 2146 1720 2159.300781 1703.601562 2159.300781 C 1687.199219 2159.300781 1673.898438 2146 1673.898438 2129.601562 L 1673.898438 2006.5 C 1673.898438 1965.898438 1706.898438 1932.898438 1747.5 1932.898438 L 2673.398438 1932.898438 C 2714 1932.898438 2747 1965.898438 2747 2006.5 L 2747 2129.601562 C 2747.199219 2146 2733.898438 2159.199219 2717.5 2159.199219 "/>
<path fill-rule="evenodd" fill="rgb(100%, 100%, 100%)" fill-opacity="1" d="M 2690.800781 1995.699219 C 2686.898438 1995.699219 2682.800781 1994.898438 2679.101562 1993.300781 C 2677.398438 1992.601562 2675.5 1992.199219 2673.601562 1992.199219 C 2657.199219 1992.199219 2643.898438 1979 2643.898438 1962.601562 C 2643.898438 1953 2648.5 1944.5 2655.601562 1939 C 2645.398438 1900.5 2619 1845.101562 2551.800781 1833.300781 C 2520 1827.601562 2492.5 1841.300781 2457.699219 1858.601562 C 2396.300781 1889 2320 1926.898438 2194.800781 1861.5 C 2105.800781 1815 2063.199219 1753.300781 2018.101562 1688 C 2004.5 1668.300781 1990.398438 1647.898438 1974.800781 1627.601562 C 1957.898438 1605.601562 1942.5 1594.699219 1932.5 1597.699219 C 1903.398438 1606.300781 1871.699219 1692.101562 1866.300781 1756.398438 C 1860.699219 1822.199219 1869.800781 1888.101562 1893.199219 1952.5 C 1898.800781 1967.898438 1890.898438 1984.898438 1875.5 1990.601562 C 1860.101562 1996.199219 1843 1988.300781 1837.398438 1972.898438 C 1810.898438 1900.398438 1800.699219 1825.898438 1807.101562 1751.398438 C 1811.199219 1703.898438 1839.800781 1563.101562 1915.800781 1540.800781 C 1940.800781 1533.5 1979.5 1536.398438 2021.898438 1591.5 C 2038.5 1613.199219 2053 1634.101562 2067.101562 1654.5 C 2109.699219 1716.101562 2146.5 1769.5 2222.5 1809.101562 C 2321 1860.601562 2374.699219 1833.800781 2431.601562 1805.601562 C 2470.800781 1786.101562 2511.300781 1766 2562.398438 1775 C 2649.898438 1790.398438 2709 1860.699219 2720.5 1962.898438 C 2721.699219 1973.398438 2717.199219 1983.699219 2708.699219 1990 C 2703.300781 1993.800781 2697.101562 1995.699219 2690.800781 1995.699219 "/>
<path fill-rule="evenodd" fill="rgb(100%, 100%, 100%)" fill-opacity="1" d="M 2507.300781 2587.699219 L 1914 2587.699219 C 1897.601562 2587.699219 1884.300781 2574.398438 1884.300781 2558 L 1884.300781 2275 C 1884.300781 2258.5 1897.601562 2245.300781 1913.898438 2245.300781 L 2507.300781 2245.300781 C 2523.699219 2245.300781 2536.898438 2258.5 2536.898438 2275 L 2536.898438 2558 C 2537 2574.300781 2523.699219 2587.699219 2507.300781 2587.699219 Z M 1943.601562 2528.300781 L 2477.699219 2528.300781 L 2477.699219 2304.699219 L 1943.601562 2304.699219 L 1943.601562 2528.300781 "/>
<path fill-rule="evenodd" fill="rgb(100%, 100%, 100%)" fill-opacity="1" d="M 3048.5 2853 L 2976.101562 2853 C 2930.199219 2853 2892.898438 2815.699219 2892.898438 2769.800781 L 2892.898438 1856.800781 C 2892.898438 1810.898438 2930.199219 1773.601562 2976.101562 1773.601562 L 3048.5 1773.601562 C 3088.300781 1773.601562 3122.601562 1798.101562 3150.5 1846.398438 C 3258.800781 2034 3258.800781 2592.398438 3150.5 2780.101562 C 3122.699219 2828.5 3088.398438 2853 3048.5 2853 Z M 2976.101562 1833 C 2962.898438 1833 2952.199219 1843.699219 2952.199219 1856.898438 L 2952.199219 2769.898438 C 2952.199219 2783.101562 2962.898438 2793.800781 2976.101562 2793.800781 L 3048.5 2793.800781 C 3069.699219 2793.800781 3087.699219 2770.300781 3099.199219 2750.601562 C 3144.699219 2671.800781 3173 2504.300781 3173 2313.398438 C 3173 2122.601562 3144.699219 1955 3099.199219 1876.199219 C 3087.898438 1856.5 3069.800781 1833 3048.5 1833 L 2976.101562 1833 "/>
</svg>
